<svg width="1323" height="1325" viewBox="0 0 1323 1325" fill="none" xmlns="http://www.w3.org/2000/svg">
<g opacity="0.07">
<path d="M841.896 655.515C851.957 674.435 866.742 692.261 867.962 713.527C869.943 747.772 837.476 773.416 824.215 805.158C807.905 844.094 821.623 889.91 807.143 929.471C796.625 958.086 771.017 981.072 740.836 988.578C718.277 994.207 694.498 991.705 671.176 991.862C605.022 992.487 539.021 1015.94 473.629 1005.31C441.314 999.993 410.828 986.545 378.513 982.323C339.644 977.163 294.373 983.418 266.631 956.366C227.762 918.525 256.571 848.941 227.457 803.595C218.006 788.896 202.916 777.481 197.886 761.063C191.941 741.673 201.544 721.189 213.433 704.614C225.323 688.195 240.108 673.028 246.51 653.795C252.303 636.438 248.797 617.517 241.633 600.63C230.658 574.673 261.296 515.253 322.267 519.787C350.162 521.82 362.813 488.67 393.451 479.445C428.51 468.968 472.562 477.412 498.322 486.168C524.54 495.081 557.007 499.772 572.098 476.943C593.285 444.575 656.696 439.571 685.2 492.11C695.565 511.187 704.863 526.199 726.965 524.635C846.774 516.66 826.806 627.525 841.896 655.515ZM515.242 478.35C515.242 482.728 515.242 490.234 534.143 488.983C539.935 488.67 544.661 485.387 544.661 481.008C544.661 476.63 539.935 473.034 534.143 473.034C528.351 473.19 515.242 471.313 515.242 478.35ZM329.127 499.772C328.517 500.085 328.212 500.711 327.907 501.336C326.688 503.212 324.554 504.463 322.42 505.402C321.2 505.871 319.828 506.34 318.914 507.278C317.39 508.842 317.542 511.656 319.219 512.907C320.591 514.002 322.42 514.158 324.249 514.002C330.803 513.689 337.205 511.187 342.388 507.122C348.942 501.649 332.785 497.74 329.127 499.772ZM311.14 509.78C308.854 508.216 306.11 509.154 303.823 510.249C303.366 510.562 302.909 510.874 302.756 511.344C302.452 512.438 303.823 513.22 304.89 513.533C306.567 514.002 308.396 514.627 310.073 514.002C311.75 513.533 313.426 511.344 311.14 509.78ZM227.609 650.042C225.932 644.882 222.122 642.38 216.177 645.351C212.671 647.071 210.232 650.355 208.098 653.638C204.745 658.955 201.849 664.897 202.611 670.995C203.068 675.53 205.659 679.752 209.318 682.41C210.842 683.504 212.671 684.286 214.5 684.286C216.634 684.286 218.463 683.035 220.14 681.784C223.951 678.813 226.847 674.748 229.743 670.995C231.267 668.962 232.792 666.773 233.097 664.428C233.859 658.955 229.133 654.733 227.609 650.042ZM840.372 807.973C838.848 808.599 837.323 809.38 836.561 810.788C835.952 811.882 835.647 813.133 835.647 814.384C835.342 817.042 835.189 819.544 835.189 822.203C835.189 825.017 835.494 828.145 837.628 830.177C840.524 832.836 845.097 831.897 848.756 830.803C850.89 830.177 853.176 829.552 854.548 827.832C855.615 826.581 855.92 825.017 856.225 823.454C857.139 818.293 859.883 810.475 856.834 807.66C853.481 804.846 845.707 805.784 840.372 807.973ZM628.649 1008.75C627.887 1009.53 627.124 1010.31 626.667 1011.25C625.448 1013.91 626.667 1017.35 629.411 1018.44C630.783 1019.07 632.307 1019.07 633.831 1018.91C646.483 1018.76 660.049 1018.29 670.109 1010.78C671.329 1009.84 672.548 1008.59 672.396 1007.19C672.091 1005.31 669.957 1004.53 668.128 1004.21C655.476 1001.87 638.709 999.054 628.649 1008.75ZM389.336 988.734C378.361 987.171 360.984 985.138 360.984 994.207C360.984 997.647 376.532 1000.93 378.971 1001.56C386.897 1003.59 394.366 1006.4 401.987 1009.37C416.316 1014.85 427.9 1007.5 416.468 999.211C407.17 992.487 398.177 989.985 389.336 988.734Z" fill="#2A94F4"/>
</g>
<g opacity="0.51">
<path d="M666.756 875.837C663.25 868.957 671.329 861.607 678.798 860.2C686.267 858.793 694.65 859.887 700.443 855.04C708.369 848.629 707.912 834.712 716.6 829.552C723.612 825.487 732.91 829.396 740.226 826.112C749.372 822.046 751.963 808.912 761.109 804.533C768.273 800.937 777.724 805.002 781.382 812.195C785.04 819.388 783.364 828.77 778.334 835.181C774.37 840.029 768.426 843.625 765.987 849.411C762.176 858.636 768.273 869.739 764.615 879.121C758.061 896.321 726.965 891.161 721.478 908.83C720.258 912.74 720.716 916.962 720.411 921.184C719.496 933.38 711.113 944.013 700.747 950.112C690.382 956.21 678.188 958.243 666.299 959.181C661.421 959.494 656.238 959.65 651.97 957.304C647.855 955.115 645.111 951.206 642.825 946.984C628.496 920.558 622.552 885.844 666.756 875.837Z" fill="#A6DBF9"/>
</g>
<g opacity="0.51">
<path d="M434.607 851.913C439.485 843.782 430.339 834.087 421.346 831.741C412.353 829.396 402.14 829.865 395.281 823.454C386.287 814.854 387.964 797.809 377.751 790.773C369.52 785.144 357.936 789.053 349.095 784.362C338.12 778.576 336.291 762.158 325.621 755.903C317.085 750.899 305.195 754.808 300.013 763.409C294.83 772.009 296.05 783.58 301.689 791.867C306.11 798.279 312.969 803.126 315.56 810.475C319.524 822.046 310.988 835.181 314.493 846.909C321.048 868.644 359.612 865.204 364.49 887.408C365.557 892.412 364.642 897.416 364.642 902.576C364.642 917.587 373.941 931.504 386.135 939.948C398.329 948.392 412.962 952.144 427.443 954.334C433.388 955.272 439.637 955.897 445.125 953.395C450.307 951.206 454.118 946.515 457.319 941.668C477.287 910.238 487.652 868.331 434.607 851.913Z" fill="#A6DBF9"/>
</g>
<path d="M753.566 476.23L742.873 479.969L738.29 466.417C729.736 441.339 702.698 427.943 678.105 436.666C653.511 445.389 640.375 472.959 648.929 498.037L653.511 511.589L642.819 515.327C634.417 518.287 629.987 527.633 632.89 536.2L662.982 624.83C665.885 633.397 675.203 638.069 683.451 635.11L794.045 596.013C802.447 593.054 807.029 583.552 804.127 574.985L774.035 486.355C771.285 477.788 762.12 473.115 753.566 476.23ZM669.245 490.716C664.51 477.009 671.689 461.9 685.132 457.071C698.574 452.243 713.391 459.564 718.127 473.427L722.709 486.978L673.828 504.268L669.245 490.716ZM733.402 571.558L741.04 594.144C741.345 595.079 740.734 596.013 739.818 596.48L729.125 600.219C728.361 600.53 727.292 600.063 726.986 599.128L719.349 576.543C711.1 576.231 703.462 570.935 700.56 562.368C696.894 551.465 702.546 539.471 713.238 535.577C723.931 531.838 735.693 537.601 739.512 548.505C742.414 557.072 739.665 566.106 733.402 571.558Z" fill="#52B4EB"/>
<path d="M639.014 916.492C649.836 911.801 659.439 902.888 667.518 894.445C689.163 871.459 702.577 841.592 709.741 810.631C716.143 782.642 717.515 753.87 716.295 725.255C716.143 722.909 712.484 722.753 712.637 725.255C715.685 789.522 703.186 868.175 647.245 907.267C644.044 909.456 640.843 911.645 637.337 913.209C635.051 914.147 636.88 917.431 639.014 916.492Z" fill="black"/>
<path d="M710.198 799.842C710.198 799.842 713.704 779.045 740.531 775.761C740.684 775.761 730.776 800.311 710.198 799.842Z" fill="black"/>
<path d="M701.51 830.49C701.51 830.49 709.741 811.101 736.568 814.384C736.416 814.384 721.325 835.963 701.51 830.49Z" fill="black"/>
<path d="M690.077 857.698C690.077 857.698 702.272 840.654 727.727 850.036C727.727 850.036 708.216 867.549 690.077 857.698Z" fill="black"/>
<path d="M714.314 767.474C714.314 767.474 717.819 746.99 744.19 743.862C744.19 743.862 734.587 768.099 714.314 767.474Z" fill="black"/>
<path d="M714.771 731.979C714.771 731.979 699.681 718.062 711.113 693.356C711.113 693.512 725.898 714.622 714.771 731.979Z" fill="black"/>
<path d="M714.771 753.088C714.771 753.088 694.803 749.335 691.907 722.284C692.059 722.127 715.533 732.291 714.771 753.088Z" fill="black"/>
<path d="M712.789 784.205C712.789 784.205 692.821 780.452 689.925 753.401C690.077 753.401 713.551 763.408 712.789 784.205Z" fill="black"/>
<path d="M707.607 813.446C707.607 813.446 687.943 808.286 687.029 781.078C687.029 780.922 709.741 792.649 707.607 813.446Z" fill="black"/>
<path d="M698.613 842.53C698.613 842.53 678.95 837.37 678.036 810.162C678.036 810.162 700.747 821.89 698.613 842.53Z" fill="black"/>
<path d="M435.064 908.674C424.242 903.983 414.639 895.07 406.56 886.626C384.915 863.64 371.502 833.774 364.338 802.813C357.936 774.823 356.564 746.051 357.783 717.436C357.936 715.091 361.594 714.934 361.441 717.436C358.393 781.703 370.892 860.356 426.833 899.448C430.034 901.637 433.235 903.826 436.741 905.39C439.028 906.328 437.198 909.612 435.064 908.674Z" fill="black"/>
<path d="M363.88 792.024C363.88 792.024 360.374 771.227 333.547 767.943C333.395 767.943 343.302 792.493 363.88 792.024Z" fill="black"/>
<path d="M372.721 822.672C372.721 822.672 364.49 803.282 337.663 806.566C337.663 806.566 352.753 828.144 372.721 822.672Z" fill="black"/>
<path d="M384.153 849.88C384.153 849.88 371.959 832.836 346.503 842.218C346.351 842.218 365.862 859.731 384.153 849.88Z" fill="black"/>
<path d="M359.765 759.655C359.765 759.655 356.259 739.171 329.889 736.044C329.889 736.044 339.492 760.281 359.765 759.655Z" fill="black"/>
<path d="M359.46 724.16C359.46 724.16 374.55 710.243 363.118 685.537C363.118 685.693 348.18 706.803 359.46 724.16Z" fill="black"/>
<path d="M359.307 745.27C359.307 745.27 379.276 741.517 382.172 714.465C382.172 714.309 358.545 724.473 359.307 745.27Z" fill="black"/>
<path d="M361.289 776.387C361.289 776.387 381.257 772.634 384.153 745.582C384.153 745.582 360.527 755.59 361.289 776.387Z" fill="black"/>
<path d="M366.471 805.627C366.471 805.627 386.135 800.467 387.049 773.259C387.049 773.103 364.337 784.83 366.471 805.627Z" fill="black"/>
<path d="M375.465 834.712C375.465 834.712 395.128 829.552 396.043 802.344C396.043 802.344 373.331 814.071 375.465 834.712Z" fill="black"/>
<path d="M628.039 963.09H455.337C437.503 963.09 423.175 948.235 423.175 930.096V519.318C423.175 501.023 437.656 486.325 455.337 486.325H627.887C645.721 486.325 660.049 501.18 660.049 519.318V930.096C660.201 948.235 645.721 963.09 628.039 963.09Z" fill="#2A94F4"/>
<path d="M626.667 946.202H456.709C444.21 946.202 434.15 935.882 434.15 923.06V523.384C434.15 510.562 444.21 500.241 456.709 500.241H626.667C639.166 500.241 649.227 510.562 649.227 523.384V923.06C649.227 935.882 639.166 946.202 626.667 946.202Z" fill="#F7F7F7"/>
<path d="M606.089 500.242H592.066C587.798 500.242 584.292 503.838 584.292 508.216V513.846C584.292 518.224 580.786 521.82 576.518 521.82H514.175C509.907 521.82 506.401 518.224 506.401 513.846V508.216C506.401 503.838 502.895 500.242 498.627 500.242H458.843V496.176H606.089V500.242Z" fill="#2A94F4"/>
<path opacity="0.17" d="M538.716 688.195C555.889 688.195 569.811 673.914 569.811 656.296C569.811 638.679 555.889 624.397 538.716 624.397C521.542 624.397 507.62 638.679 507.62 656.296C507.62 673.914 521.542 688.195 538.716 688.195Z" fill="#2A94F4"/>
<path d="M550.758 648.947C550.758 655.827 545.423 661.3 538.716 661.3C532.009 661.3 526.674 655.827 526.674 648.947C526.674 642.067 532.009 636.594 538.716 636.594C545.423 636.594 550.758 642.067 550.758 648.947ZM556.855 699.767V682.097C556.855 672.246 549.081 664.115 539.326 664.115H537.954C528.351 664.115 520.424 672.089 520.424 682.097V699.767C520.424 702.581 522.558 704.77 525.302 704.77H551.977C554.721 704.77 556.855 702.581 556.855 699.767Z" fill="#2A94F4"/>
<path opacity="0.17" d="M613.253 724.629H464.178C457.319 724.629 451.832 719 451.832 711.963C451.832 704.927 457.319 699.297 464.178 699.297H613.253C620.113 699.297 625.6 704.927 625.6 711.963C625.6 718.843 620.113 724.629 613.253 724.629Z" fill="#2A94F4"/>
<path d="M608.071 715.247H469.361C467.532 715.247 466.16 713.84 466.16 711.963C466.16 710.087 467.532 708.679 469.361 708.679H608.071C609.9 708.679 611.272 710.087 611.272 711.963C611.272 713.683 609.9 715.247 608.071 715.247Z" fill="#2A94F4"/>
<path opacity="0.17" d="M613.406 769.976H464.331C457.471 769.976 451.984 764.347 451.984 757.31C451.984 750.274 457.471 744.644 464.331 744.644H613.406C620.265 744.644 625.753 750.274 625.753 757.31C625.753 764.347 620.113 769.976 613.406 769.976Z" fill="#2A94F4"/>
<path d="M468.141 760.907C466.312 760.907 464.94 759.499 464.94 757.623C464.94 755.746 466.312 754.339 468.141 754.339C469.971 754.339 471.342 755.746 471.342 757.623C471.342 759.499 469.818 760.907 468.141 760.907ZM480.945 757.623C480.945 755.746 479.574 754.339 477.744 754.339C475.915 754.339 474.543 755.746 474.543 757.623C474.543 759.499 475.915 760.907 477.744 760.907C479.421 760.907 480.945 759.499 480.945 757.623ZM490.396 757.623C490.396 755.746 489.024 754.339 487.195 754.339C485.366 754.339 483.994 755.746 483.994 757.623C483.994 759.499 485.366 760.907 487.195 760.907C489.024 760.907 490.396 759.499 490.396 757.623ZM499.999 757.623C499.999 755.746 498.627 754.339 496.798 754.339C494.969 754.339 493.597 755.746 493.597 757.623C493.597 759.499 494.969 760.907 496.798 760.907C498.627 760.907 499.999 759.499 499.999 757.623ZM509.602 757.623C509.602 755.746 508.23 754.339 506.401 754.339C504.572 754.339 503.2 755.746 503.2 757.623C503.2 759.499 504.572 760.907 506.401 760.907C508.23 760.907 509.602 759.499 509.602 757.623ZM519.205 757.623C519.205 755.746 517.833 754.339 516.004 754.339C514.175 754.339 512.803 755.746 512.803 757.623C512.803 759.499 514.175 760.907 516.004 760.907C517.681 760.907 519.205 759.499 519.205 757.623ZM528.808 757.623C528.808 755.746 527.436 754.339 525.607 754.339C523.778 754.339 522.406 755.746 522.406 757.623C522.406 759.499 523.778 760.907 525.607 760.907C527.284 760.907 528.808 759.499 528.808 757.623Z" fill="#2A94F4"/>
<path d="M335.833 916.492C335.833 916.492 332.632 934.631 331.87 937.758C331.261 940.26 329.431 942.137 327.602 944.013C326.993 944.639 326.535 945.89 326.23 946.828C325.926 947.61 326.078 948.548 326.535 949.33C334.614 962.621 351.534 965.123 351.686 964.028C351.991 961.995 348.79 958.555 345.132 957.148C341.473 955.897 338.73 952.457 337.815 948.548C337.053 945.42 337.053 942.137 337.967 939.009L341.931 925.093L335.833 916.492Z" fill="#B97A59"/>
<path d="M325.926 918.525L329.889 936.82C331.108 942.45 330.346 948.235 327.755 953.395C326.23 956.21 327.602 959.806 330.498 960.901C340.101 964.341 358.545 971.065 359.307 970.283C363.575 966.687 352.448 960.588 344.217 954.334C338.73 950.112 336.596 930.097 336.138 914.929L327.297 917.274C326.688 917.274 326.078 917.743 325.926 918.525Z" fill="#B97A59"/>
<path d="M342.388 959.493C346.351 960.901 350.619 961.214 354.582 961.839C355.039 961.839 355.497 962.152 355.802 962.308C359.612 965.279 361.594 968.406 359.307 970.283C358.393 971.065 336.596 963.09 328.212 960.119C326.383 959.493 325.621 957.304 326.535 955.584L328.212 952.457C332.632 955.272 337.358 957.773 342.388 959.493Z" fill="#2A94F4"/>
<path d="M330.041 731.197C319.981 734.793 313.731 748.866 318.304 762.001C320.895 769.663 333.547 796.089 345.894 816.574C350.619 824.392 351.229 834.243 347.113 842.374C346.503 843.625 345.894 845.033 345.436 846.44C343.455 853.32 338.272 892.099 335.681 917.9C336.9 920.871 339.492 924.624 342.083 925.406C350.924 902.107 364.338 860.2 366.472 852.851C367.691 848.785 368.91 844.251 369.673 839.872C375.77 826.738 361.441 763.721 357.173 751.368C352.601 738.39 339.949 727.6 330.041 731.197Z" fill="#0B4870"/>
<path d="M336.291 658.173C345.214 658.173 352.448 648.582 352.448 636.751C352.448 624.919 345.214 615.328 336.291 615.328C327.367 615.328 320.133 624.919 320.133 636.751C320.133 648.582 327.367 658.173 336.291 658.173Z" fill="#0B4870"/>
<path d="M332.48 638.94C332.175 627.056 322.877 617.048 311.292 616.423C301.08 615.797 292.239 622.208 288.885 631.434C287.666 634.718 284.617 636.75 281.264 636.75C279.892 636.75 278.52 636.907 276.996 637.22C268.612 638.94 261.906 646.289 261.143 655.202C260.381 663.177 264.04 670.213 269.832 674.279C272.271 675.999 273.795 678.813 274.1 681.941C276.081 696.014 288.581 706.49 302.909 704.77C315.103 703.363 325.011 693.043 326.078 680.377C326.688 672.715 324.096 665.522 319.524 660.206C327.297 656.609 332.632 648.322 332.48 638.94Z" fill="#0B4870"/>
<path d="M336.291 608.292C336.291 608.292 345.436 614.234 344.217 622.052C344.217 622.052 349.095 618.456 350.162 606.415C351.076 597.971 336.291 608.292 336.291 608.292Z" fill="#0B4870"/>
<path d="M351.076 650.042C355.954 652.544 360.832 654.577 365.862 655.828C370.892 657.078 376.075 657.078 381.41 656.297C386.897 655.515 392.537 653.951 398.634 652.857C404.731 651.762 411.133 651.449 417.078 652.387C418.145 652.544 418.907 653.638 418.755 654.733C418.602 655.671 417.84 656.453 416.925 656.453C411.133 656.766 405.798 657.86 400.311 659.893C394.976 661.77 389.488 664.271 383.391 666.148C377.294 668.024 370.435 668.806 363.88 668.024C357.326 667.242 351.076 665.366 345.132 662.864C341.626 661.457 339.797 657.235 341.168 653.638C342.54 650.042 346.656 648.165 350.162 649.573C350.314 649.573 350.467 649.729 350.619 649.729L351.076 650.042Z" fill="#B97A59"/>
<path d="M346.503 697.577C350.162 686.319 357.478 662.395 356.869 654.733C356.411 649.729 352.448 645.976 347.57 645.976H315.713C310.53 645.976 306.11 650.198 305.957 655.671C305.653 665.053 309.921 686.475 312.359 697.734H346.503V697.577Z" fill="#117CB9"/>
<path d="M335.986 918.682C336.443 918.369 336.748 917.744 336.748 917.118C336.138 893.194 334.614 862.702 334.157 856.917C334.157 856.291 334.004 855.665 333.852 854.884C338.882 826.581 339.644 765.911 340.101 755.278C340.711 741.361 332.48 725.568 321.962 724.942C311.292 724.473 299.86 735.731 296.507 748.554C294.22 756.997 302.909 802.031 312.359 834.712C314.341 841.592 314.646 848.785 313.579 855.822C312.817 860.669 312.664 865.829 312.969 869.582C313.426 875.368 319.676 898.667 325.621 918.838C325.773 919.464 326.23 919.933 326.84 919.933C330.041 920.715 333.09 920.558 335.986 918.682Z" fill="#0B4870"/>
<path d="M308.854 711.807C310.53 707.116 310.988 701.956 310.225 697.108C308.701 685.537 305.805 663.958 306.11 654.733C306.262 649.729 310.225 645.976 314.951 645.976H319.676C321.505 650.198 325.316 653.482 331.108 653.482C337.053 653.482 340.711 650.198 342.54 645.976H346.961C342.235 656.453 343.912 670.369 352.143 678.501C350.619 684.13 349.247 689.603 348.333 694.137C346.961 700.236 347.57 706.647 350.009 712.432C354.125 722.44 357.326 738.389 356.259 744.8C322.877 754.495 299.86 737.295 299.86 737.295L308.854 711.807Z" fill="#117CB9"/>
<path d="M336.291 648.165L321.962 646.602L326.535 630.496L335.833 631.59L336.291 648.165Z" fill="#B97A59"/>
<path d="M335.833 631.591L326.535 630.34L325.163 635.343C327.297 637.689 329.889 643.005 333.242 643.005C334.309 643.005 335.224 642.693 336.138 642.067L335.833 631.591Z" fill="#AA6B4F"/>
<path d="M336.138 639.409C332.937 639.409 329.584 637.845 324.859 633.623C322.115 631.278 320.133 627.056 320.133 624.085V608.292H343.76C343.76 608.292 345.589 616.735 343.76 625.023C342.54 631.278 338.577 639.409 336.138 639.409Z" fill="#B97A59"/>
<path d="M324.096 621.114C324.096 624.241 322.725 626.743 320.895 626.743C319.066 626.743 317.237 622.677 317.237 619.706C317.237 616.579 319.219 615.641 320.895 615.641C322.725 615.484 324.096 617.986 324.096 621.114Z" fill="#B97A59"/>
<path d="M317.237 610.168C317.237 605.321 321.2 601.255 325.926 601.255H333.852C336.138 601.255 338.425 600.63 340.254 599.535C342.998 597.971 346.656 598.44 348.485 601.099C350.619 603.913 351.534 607.823 346.199 611.419C343.607 613.139 339.797 611.263 337.205 612.044C337.053 612.044 336.9 612.044 336.748 612.044H329.736C327.297 612.044 325.468 614.077 325.316 616.579C325.316 618.143 323.944 619.394 322.42 619.394H322.115L321.048 615.641L317.085 621.114V610.168H317.237Z" fill="#0B4870"/>
<path d="M425.461 650.667C425.461 650.667 421.651 658.329 419.059 657.86C416.468 657.391 414.639 656.766 415.096 652.7C415.554 648.791 417.992 643.474 419.974 640.66C421.956 637.845 427.443 634.562 428.358 634.562C431.254 634.718 426.986 639.409 425.004 641.911C423.023 644.256 421.041 647.227 422.413 647.853C423.785 648.478 427.291 643.631 429.12 643.787C430.949 643.944 425.461 650.667 425.461 650.667Z" fill="#B97A59"/>
<path d="M342.083 607.979C341.321 611.576 342.388 613.608 330.956 619.238C319.371 624.867 315.865 622.521 312.207 628.463C312.207 628.463 313.731 618.456 320.133 615.016C326.535 611.576 337.51 609.386 341.016 601.412C341.016 601.412 342.54 605.634 342.083 607.979Z" fill="#0B4870"/>
<path d="M315.713 660.675C315.103 661.144 314.646 661.457 314.189 661.926C313.731 662.239 313.274 662.551 312.817 662.864C311.902 663.489 310.988 664.115 310.073 664.584C308.244 665.679 306.262 666.617 304.281 667.555C300.318 669.275 296.05 670.37 291.782 671.151C283.093 672.402 274.252 671.151 266.326 668.024C262.363 666.46 258.705 664.428 255.199 662.082C251.693 659.737 248.492 657.078 245.443 654.264C239.499 648.635 234.316 642.067 229.896 635.343C229.438 634.561 229.591 633.623 230.353 633.154C230.963 632.685 231.877 632.841 232.334 633.467C237.669 639.409 243.157 644.882 249.254 649.573C255.351 654.107 261.906 658.017 268.917 660.049C272.423 660.988 275.929 661.769 279.435 661.926C282.941 662.082 286.447 661.769 289.952 661.144C293.458 660.518 296.812 659.267 300.013 657.86C301.537 657.078 303.214 656.297 304.738 655.358C305.5 654.889 306.262 654.42 306.872 653.951C307.177 653.638 307.634 653.482 307.939 653.169L308.854 652.544L309.158 652.231C311.445 650.355 314.798 650.824 316.627 653.169C318.304 655.515 317.999 658.798 315.713 660.675Z" fill="#B97A59"/>
<path d="M339.797 608.761C339.797 608.761 340.254 620.957 350.619 626.743C350.619 626.743 346.046 617.517 346.351 611.575C346.656 605.477 339.187 604.539 339.797 608.761Z" fill="#0B4870"/>
<path d="M323.639 954.333C322.877 953.708 322.572 952.457 323.029 951.519C323.487 950.737 324.554 948.704 325.316 947.14C325.621 946.515 326.535 946.359 326.993 946.984C332.175 954.021 339.339 958.712 347.418 958.086C350.314 959.337 352.753 962.934 352.448 964.654C352.448 964.966 348.942 965.905 344.827 964.497C326.84 958.399 323.639 954.333 323.639 954.333Z" fill="#0091F2"/>
<path d="M232.944 628.15C232.944 628.15 237.974 635.031 236.45 637.376C234.926 639.722 233.401 640.973 230.2 638.783C226.847 636.594 223.341 632.06 221.664 628.776C219.988 625.492 219.683 619.081 219.988 618.299C221.512 615.641 223.798 621.739 225.018 624.71C226.237 627.681 227.914 630.809 229.133 629.714C230.353 628.776 227.457 623.303 228.524 621.739C229.591 620.019 232.944 628.15 232.944 628.15Z" fill="#B97A59"/>
<path d="M906.381 1009H153.619C140.514 1009 130 998.094 130 984.5C130 970.906 140.514 960 153.619 960H906.381C919.486 960 930 970.906 930 984.5C930 998.094 919.486 1009 906.381 1009Z" fill="#D3D3D3"/>
<path d="M316.976 546.087L307.079 535L185.885 648.685C177.511 643.219 166.853 641.814 156.804 645.718C140.056 652.277 131.682 671.484 138.229 688.662C144.776 705.84 163.351 714.429 180.099 707.714C196.847 701.155 205.221 681.947 198.674 664.77C198.217 663.52 197.608 662.271 196.999 661.022L288.809 573.103L299.771 584.191L310.733 572.791L302.055 563.89L305.404 559.83L314.387 568.106L322 559.205L312.56 550.304L316.976 546.087ZM175.988 696.782C165.178 700.999 152.846 695.533 148.735 684.29C144.624 673.202 149.953 660.553 160.915 656.337C171.725 652.12 184.058 657.586 188.169 668.83C192.279 680.073 186.798 692.566 175.988 696.782Z" fill="#A6DBF9"/>
<path d="M903.264 227V212.455H906.339V224.464H912.575V227H903.264ZM919.484 227.213C918.381 227.213 917.427 226.979 916.622 226.51C915.822 226.036 915.204 225.378 914.768 224.536C914.333 223.688 914.115 222.705 914.115 221.588C914.115 220.461 914.333 219.476 914.768 218.634C915.204 217.786 915.822 217.128 916.622 216.659C917.427 216.186 918.381 215.949 919.484 215.949C920.587 215.949 921.539 216.186 922.339 216.659C923.144 217.128 923.764 217.786 924.2 218.634C924.636 219.476 924.853 220.461 924.853 221.588C924.853 222.705 924.636 223.688 924.2 224.536C923.764 225.378 923.144 226.036 922.339 226.51C921.539 226.979 920.587 227.213 919.484 227.213ZM919.498 224.869C920 224.869 920.419 224.727 920.755 224.443C921.092 224.154 921.345 223.761 921.515 223.264C921.69 222.767 921.778 222.201 921.778 221.567C921.778 220.932 921.69 220.366 921.515 219.869C921.345 219.372 921.092 218.979 920.755 218.69C920.419 218.402 920 218.257 919.498 218.257C918.992 218.257 918.565 218.402 918.22 218.69C917.879 218.979 917.621 219.372 917.446 219.869C917.275 220.366 917.19 220.932 917.19 221.567C917.19 222.201 917.275 222.767 917.446 223.264C917.621 223.761 917.879 224.154 918.22 224.443C918.565 224.727 918.992 224.869 919.498 224.869ZM931.735 231.318C930.755 231.318 929.915 231.183 929.214 230.913C928.518 230.648 927.964 230.286 927.552 229.827C927.14 229.367 926.873 228.851 926.75 228.278L929.548 227.902C929.633 228.12 929.768 228.323 929.953 228.513C930.137 228.702 930.381 228.854 930.684 228.967C930.992 229.086 931.366 229.145 931.806 229.145C932.465 229.145 933.007 228.984 933.433 228.662C933.864 228.345 934.079 227.812 934.079 227.064V225.068H933.951C933.819 225.371 933.62 225.658 933.355 225.928C933.09 226.197 932.749 226.418 932.332 226.588C931.915 226.759 931.418 226.844 930.841 226.844C930.021 226.844 929.276 226.654 928.603 226.276C927.936 225.892 927.403 225.307 927.005 224.521C926.612 223.731 926.416 222.732 926.416 221.524C926.416 220.288 926.617 219.256 927.02 218.428C927.422 217.599 927.957 216.979 928.625 216.567C929.297 216.155 930.033 215.949 930.833 215.949C931.444 215.949 931.956 216.053 932.368 216.261C932.779 216.465 933.111 216.721 933.362 217.028C933.618 217.331 933.814 217.63 933.951 217.923H934.065V216.091H937.069V227.107C937.069 228.035 936.842 228.811 936.387 229.436C935.933 230.061 935.303 230.53 934.498 230.842C933.698 231.16 932.777 231.318 931.735 231.318ZM931.799 224.571C932.287 224.571 932.699 224.45 933.035 224.209C933.376 223.963 933.636 223.612 933.816 223.158C934.001 222.698 934.093 222.149 934.093 221.51C934.093 220.871 934.003 220.317 933.824 219.848C933.644 219.375 933.383 219.008 933.042 218.747C932.701 218.487 932.287 218.357 931.799 218.357C931.302 218.357 930.883 218.491 930.542 218.761C930.201 219.027 929.943 219.396 929.768 219.869C929.593 220.343 929.505 220.89 929.505 221.51C929.505 222.14 929.593 222.684 929.768 223.143C929.948 223.598 930.206 223.951 930.542 224.202C930.883 224.448 931.302 224.571 931.799 224.571ZM939.477 227V216.091H942.502V227H939.477ZM940.997 214.685C940.547 214.685 940.161 214.536 939.839 214.237C939.522 213.934 939.363 213.572 939.363 213.151C939.363 212.734 939.522 212.376 939.839 212.078C940.161 211.775 940.547 211.624 940.997 211.624C941.447 211.624 941.83 211.775 942.147 212.078C942.469 212.376 942.63 212.734 942.63 213.151C942.63 213.572 942.469 213.934 942.147 214.237C941.83 214.536 941.447 214.685 940.997 214.685ZM947.952 220.693V227H944.926V216.091H947.81V218.016H947.938C948.179 217.381 948.584 216.879 949.152 216.51C949.72 216.136 950.409 215.949 951.219 215.949C951.976 215.949 952.637 216.115 953.2 216.446C953.764 216.777 954.202 217.251 954.514 217.866C954.827 218.477 954.983 219.206 954.983 220.054V227H951.957V220.594C951.962 219.926 951.792 219.405 951.446 219.031C951.1 218.652 950.625 218.463 950.018 218.463C949.611 218.463 949.251 218.551 948.939 218.726C948.631 218.901 948.39 219.157 948.214 219.493C948.044 219.824 947.956 220.224 947.952 220.693Z" fill="white"/>
</svg>
