<svg width="407" height="316" viewBox="0 0 407 316" fill="none" xmlns="http://www.w3.org/2000/svg">
<g clip-path="url(#clip0_4_69)">
<path d="M110 39H79V66.5304H89.6344L94.9946 72L99.4194 66.5304H110V39Z" fill="white"/>
<path d="M95.5237 72L89.9431 66.4935H79V39H111V66.4935H100.128L95.5237 72ZM79.5455 66.0101H90.1831L95.4801 71.2362L99.8442 66.0101H110.444V39.4834H79.5455V66.0101Z" fill="#2F2E41"/>
<path d="M90.0005 49.465H92.6748C92.6735 49.1979 92.7309 48.9331 92.8438 48.6858C92.9568 48.4386 93.1231 48.2136 93.3332 48.0239C93.5433 47.8341 93.7931 47.6832 94.0683 47.5799C94.3435 47.4765 94.6388 47.4227 94.9373 47.4215H95.0051C95.4531 47.4082 95.8946 47.5202 96.2682 47.7417C96.6419 47.9633 96.9292 48.2835 97.0903 48.6579C97.2323 48.9709 97.2893 49.3096 97.2567 49.6462C97.224 49.9827 97.1027 50.3076 96.9026 50.5941C96.4491 51.2613 95.4534 51.8678 93.6549 51.5879V57H96.2979V53.818C97.3816 53.5322 98.3305 52.9361 98.9991 52.1211C99.6677 51.3061 100.019 50.3173 99.9992 49.3064C99.9992 45.8118 96.496 45 94.9999 45C93.8582 45 89.9484 45.2473 90.0005 49.465Z" fill="#0091F2"/>
<path d="M96 58H93V61H96V58Z" fill="#0091F2"/>
<path d="M37.2869 121.452L31.7132 122.971C31.7132 122.971 33.1489 127.13 28.3122 128.528C27.3879 128.812 26.3868 128.833 25.4484 128.588C24.5099 128.343 23.681 127.843 23.077 127.159C22.5603 126.59 22.2016 125.922 22.0299 125.207C21.8583 124.492 21.8785 123.751 22.089 123.044C22.5584 121.404 24.1852 119.555 28.1485 119.162L24.2944 108L18.7863 109.5L21.0736 116.041C21.0736 116.041 13.9769 119.924 16.5699 127.489C19.0701 134.725 26.942 134.419 30.081 133.565C32.4338 132.89 40.404 130.163 37.2869 121.452Z" fill="#E0E0E0"/>
<path d="M20.971 97.7659L16.1575 99.219L17.5359 103.643L22.3494 102.19L20.971 97.7659Z" fill="#E0E0E0"/>
<path d="M147.616 205.777L144.578 206.649C144.685 206.965 144.724 207.297 144.693 207.627C144.663 207.957 144.564 208.278 144.401 208.572C144.238 208.866 144.016 209.127 143.746 209.34C143.476 209.554 143.164 209.715 142.827 209.814L142.727 209.844C142.223 210.009 141.677 210.023 141.164 209.882C140.652 209.742 140.199 209.455 139.868 209.061C139.587 208.732 139.392 208.345 139.301 207.932C139.209 207.519 139.223 207.091 139.341 206.684C139.599 205.733 140.491 204.702 142.643 204.44L140.533 198L137.49 198.897L138.756 202.666C137.634 203.359 136.786 204.378 136.343 205.568C135.9 206.758 135.886 208.052 136.303 209.25C137.659 213.411 141.957 213.242 143.655 212.752C144.958 212.355 149.304 210.79 147.616 205.777Z" fill="#E0E0E0"/>
<path d="M138.824 195.613L135.7 196.465L136.581 199.101L139.705 198.249L138.824 195.613Z" fill="#E0E0E0"/>
<path d="M389.018 42.8478L392.21 42.6942C392.189 42.3616 392.24 42.0285 392.358 41.7141C392.477 41.3997 392.66 41.1102 392.899 40.8621C393.138 40.614 393.427 40.4122 393.749 40.2682C394.072 40.1243 394.421 40.0411 394.779 40.0234H394.869C395.411 39.9742 395.956 40.0851 396.426 40.3403C396.897 40.5955 397.269 40.9822 397.491 41.4455C397.681 41.8281 397.771 42.2472 397.753 42.6684C397.736 43.0896 397.611 43.5009 397.39 43.8686C396.89 44.7209 395.752 45.5385 393.566 45.2808L393.928 52L397.119 51.8513L396.858 47.9219C398.137 47.5049 399.233 46.7084 399.979 45.6548C400.724 44.6012 401.078 43.3487 400.986 42.0897C400.752 37.7341 396.523 36.9214 394.709 37.0057C393.332 37.0651 388.673 37.5953 389.018 42.8478Z" fill="#A6DBF9"/>
<path d="M409.539 44.3008L406.288 44.4486L406.441 47.1908L409.691 47.0431L409.539 44.3008Z" fill="#E0E0E0"/>
<path d="M131.018 35.8478L134.204 35.6992C134.184 35.3663 134.234 35.033 134.352 34.7183C134.47 34.4036 134.654 34.1137 134.892 33.8652C135.13 33.6167 135.418 33.4144 135.74 33.27C136.062 33.1255 136.412 33.0417 136.768 33.0234H136.848C137.383 32.9803 137.92 33.0935 138.383 33.3474C138.846 33.6013 139.213 33.9833 139.434 34.4406C139.622 34.8242 139.711 35.2436 139.694 35.6651C139.678 36.0867 139.556 36.4988 139.338 36.8686C138.839 37.7308 137.692 38.5385 135.515 38.2858L135.882 45L139.067 44.8513L138.866 40.9169C140.141 40.5009 141.236 39.7053 141.98 38.6526C142.724 37.5998 143.078 36.3481 142.986 35.0897C142.747 30.7341 138.526 29.9214 136.721 30.0057C135.319 30.0651 130.673 30.5953 131.018 35.8478Z" fill="#E0E0E0"/>
<path d="M139.428 46.3506L136.177 46.4984L136.33 49.2406L139.581 49.0929L139.428 46.3506Z" fill="#E0E0E0"/>
<path d="M145.42 122.338L149.081 124.702C149.081 124.702 151.324 122.004 154.57 124.017C155.201 124.394 155.683 124.934 155.947 125.563C156.211 126.191 156.246 126.876 156.045 127.523C155.887 128.068 155.584 128.573 155.161 128.996C154.738 129.418 154.207 129.747 153.611 129.955C152.266 130.447 150.197 130.393 148.05 128.424L142 135.671L145.616 138L149.165 133.761C149.165 133.761 155.221 135.888 159.313 130.974C163.238 126.253 159.358 122.112 157.295 120.773C155.72 119.749 150.102 116.632 145.42 122.338Z" fill="#FAFAFA"/>
<path d="M141.559 135.899L139.146 138.892L142.69 141.224L145.103 138.231L141.559 135.899Z" fill="#FAFAFA"/>
<path d="M332.236 40.3297L335.706 42.6894C335.706 42.6894 337.832 39.9898 340.904 42.0046C341.503 42.382 341.96 42.9232 342.211 43.5528C342.463 44.1824 342.496 44.869 342.307 45.517C342.153 46.0584 341.864 46.559 341.465 46.9789C341.065 47.3988 340.566 47.7265 340.006 47.9358C338.73 48.4284 336.764 48.3693 334.734 46.3988L329 53.6403L332.422 56L335.786 51.7536C335.786 51.7536 341.52 53.8817 345.399 48.9752C349.119 44.2461 345.452 40.1081 343.486 38.7583C341.998 37.7533 336.668 34.635 332.236 40.3297Z" fill="#A6DBF9"/>
<path d="M328.014 55.2844L325.592 58.2615L329.117 60.6029L331.54 57.6257L328.014 55.2844Z" fill="#A6DBF9"/>
<path d="M186.516 124.649V226.659C186.516 238.776 183.586 249.49 177.726 257.38C180.329 262.168 184.54 263.577 191.729 263.577H195V283H190.768C176.459 283 166.987 278.489 161.788 270.317C154.619 273.978 145.175 276.213 134.101 276.213C99.2536 276.213 82 256.483 82 226.612V124.602C82 94.4468 99.2536 75 134.101 75C169.256 75.0708 186.516 94.5116 186.516 124.649ZM107.035 123.546V227.814C107.035 245.852 115.826 256.271 134.061 256.271C152.622 256.271 161.093 245.852 161.093 227.814V123.546C161.093 105.792 152.622 95.0777 134.061 95.0777C115.846 95.0777 107.035 105.792 107.035 123.546Z" fill="#117CB9"/>
<path d="M354.11 157.724C354.11 157.724 349.106 173.778 354.358 206.888C355.822 213.687 356.123 220.656 355.25 227.541C355.25 227.541 349.871 245.889 349 266.308L360.123 267C360.123 267 371.499 228.023 370.876 219.254L370.248 197.816C370.248 197.816 368.875 174.162 370.374 170.469C370.374 170.469 374.001 195.853 375.126 204.389L377.628 219.044C378.463 225.49 378.463 232.004 377.628 238.45C377.628 238.45 376.725 246.245 378.235 257.451L379.375 266.591H391.253L392.504 236.243L393 201.164C393 201.164 387.753 163.307 383.376 155C383.361 154.957 359.674 157.841 354.11 157.724Z" fill="#2F2E41"/>
<path d="M365.158 113C365.158 113 362.038 113.479 356.836 115.918C356.836 115.918 353.584 117.106 354.491 135.375C354.491 135.375 352.969 151.511 352.013 156.868C351.988 157.012 351.999 157.16 352.048 157.3C352.096 157.44 352.179 157.569 352.292 157.678C352.405 157.786 352.544 157.871 352.699 157.927C352.854 157.982 353.021 158.007 353.189 157.998C358.803 157.716 379.424 156.595 386.856 154.994C387.221 154.917 387.539 154.723 387.747 154.45C387.956 154.178 388.04 153.847 387.982 153.524L383.884 130.267L379.962 114.749C378.161 113.943 376.243 113.355 374.26 113H365.158Z" fill="#0091F2"/>
<path d="M379.624 96.8493C379.624 96.8493 382.127 112.244 374.223 110.521V115.154C374.045 115.717 373.717 116.236 373.265 116.669C372.813 117.102 372.249 117.437 371.619 117.646C370.794 117.941 369.898 118.054 369.009 117.976C368.121 117.898 367.269 117.631 366.53 117.199C366.196 117.001 365.889 116.77 365.617 116.511C365.221 116.127 365.001 115.63 365 115.116V104.585L365.923 101.41V100.496C367.802 100.114 369.558 99.3746 371.063 98.331C371.063 98.331 378.567 91.9519 379.624 96.8493Z" fill="#F9B499"/>
<path d="M374 110.436C372.539 110.271 371.157 109.775 370 109C370 109 371.212 111.659 374 113V110.436Z" fill="#F7A48B"/>
<path d="M374.256 111.478L378.477 111.174C379.231 111.123 379.947 110.863 380.521 110.432C381.094 110.001 381.494 109.421 381.664 108.777C382.8 104.324 380.516 95.2134 380.516 95.2134C382.926 99.6808 382.751 108.169 382.751 108.169C384.04 98.0524 379.896 93.2479 379.896 93.2479C377.046 86.986 371.548 90.7413 371.548 90.7413C359.703 78.5972 357 110.738 357 110.738C359.833 112.423 365.239 111.934 365.239 111.934V104.651L366.142 101.518V100.616C366.142 100.616 368.073 100.616 371.167 98.4797C371.167 98.4797 376.606 93.7607 378.857 95.6692C378.857 95.6692 379.516 96.0869 379.657 97.9005C379.657 97.9005 381.724 112.195 374.256 110.51V111.478Z" fill="#2F2E41"/>
<path d="M380 114L383.762 129.975C383.762 129.975 387.208 134.542 391.265 137.121C391.492 137.264 391.675 137.459 391.797 137.687C391.919 137.915 391.976 138.169 391.962 138.423L391.508 145.979C391.508 145.979 395.761 144.11 395.882 151C395.882 151 402.879 143.523 398.632 134.764L391.503 125.082C390.896 124.255 390.23 123.467 389.508 122.725C387.456 120.614 383.06 116.195 380 114Z" fill="#0091F2"/>
<path opacity="0.2" d="M380 114L383.762 129.975C383.762 129.975 387.208 134.542 391.265 137.121C391.492 137.264 391.675 137.459 391.797 137.687C391.919 137.915 391.976 138.169 391.962 138.423L391.508 145.979C391.508 145.979 395.761 144.11 395.882 151C395.882 151 402.879 143.523 398.632 134.764L391.503 125.082C390.896 124.255 390.23 123.467 389.508 122.725C387.456 120.614 383.06 116.195 380 114Z" fill="black"/>
<path d="M367 146.736C367 146.736 370.021 142.939 371.77 142.089C371.89 142.028 372.025 141.997 372.162 142C372.299 142.003 372.433 142.04 372.549 142.106C372.666 142.172 372.762 142.266 372.826 142.378C372.891 142.49 372.922 142.616 372.917 142.742C372.842 143.302 372.595 143.83 372.206 144.264C372.206 144.264 374.531 142.593 379.851 142.209C379.957 142.201 380.063 142.228 380.151 142.285C380.238 142.342 380.301 142.426 380.328 142.521C380.468 143.04 380.178 144.038 376.244 144.542C376.168 144.553 376.099 144.588 376.049 144.642C376 144.696 375.973 144.764 375.974 144.835C375.974 144.875 375.982 144.914 376 144.951C376.017 144.988 376.042 145.021 376.074 145.048C376.106 145.075 376.143 145.095 376.184 145.108C376.225 145.121 376.268 145.126 376.311 145.123L380.152 144.888C380.411 144.87 380.671 144.907 380.912 144.996C381.153 145.084 381.37 145.222 381.546 145.399C381.721 145.576 381.851 145.787 381.926 146.017C382.001 146.247 382.019 146.489 381.979 146.726C381.75 147.912 380.484 149.424 376.218 150.6C373.279 151.788 370.177 152.596 367 153V146.736Z" fill="#F9B499"/>
<path d="M367 281.338C359.356 283.346 347 280.148 347 280.148L348.657 266L359.991 266.713L357.952 274.811C357.446 278.14 359.098 278.375 359.098 278.375L367 281.338Z" fill="#F9B499"/>
<path d="M402 280.872C387.759 281.558 380.891 279.272 380.891 279.272C381.654 274.581 380 266 380 266H392.082L391.078 275.141C391.017 275.658 391.177 276.176 391.524 276.591C394.386 280.002 400.77 280.765 401.844 280.872H402Z" fill="#F9B499"/>
<path d="M411.829 284.973L379.056 285C378.862 283.298 379.174 281.583 379.968 280C379.968 280 386.991 282.113 401.554 281.479C414.168 283.28 411.829 284.973 411.829 284.973Z" fill="#0091F2"/>
<path d="M376.996 285H346.117C345.62 281.364 346.87 280 346.87 280C346.87 280 359.162 282.909 366.741 281.077C377.499 281.959 376.996 285 376.996 285Z" fill="#0091F2"/>
<path d="M365 105C366.105 105 367 103.881 367 102.5C367 101.119 366.105 100 365 100C363.895 100 363 101.119 363 102.5C363 103.881 363.895 105 365 105Z" fill="#F9B499"/>
<path d="M367 146.523V153C367 153 335.027 152.97 335.092 146.523C335.092 146.523 334.256 145.706 337.623 140.313C337.623 140.313 350.953 110.548 357.944 115.571C357.944 115.571 363.119 117.936 357.167 128.931L351.002 140.708C351.002 140.708 348.882 142.99 352.095 143.633C352.117 143.658 358.2 144.766 367 146.523Z" fill="#0091F2"/>
<path opacity="0.2" d="M367 146.523V153C367 153 335.027 152.97 335.092 146.523C335.092 146.523 334.256 145.706 337.623 140.313C337.623 140.313 350.953 110.548 357.944 115.571C357.944 115.571 363.119 117.936 357.167 128.931L351.002 140.708C351.002 140.708 348.882 142.99 352.095 143.633C352.117 143.658 358.2 144.766 367 146.523Z" fill="black"/>
<path d="M382 145C380.449 145.619 378.741 145.961 377 146C378.552 145.383 380.26 145.041 382 145Z" fill="#F7A48B"/>
<path d="M382 146C380.451 147.126 378.749 147.806 377 148C378.55 146.876 380.251 146.196 382 146Z" fill="#F7A48B"/>
<path d="M381 139L380.03 139.045C379.931 139.049 379.837 139.087 379.761 139.151C379.684 139.215 379.631 139.303 379.608 139.401L376.009 154.604C375.997 154.651 375.997 154.701 376.008 154.749C376.018 154.796 376.039 154.841 376.069 154.879C376.099 154.917 376.137 154.948 376.18 154.969C376.224 154.99 376.271 155.001 376.319 155H377.57L381 139Z" fill="white"/>
<path d="M376.014 154.47L380.082 139.327C380.105 139.234 380.162 139.151 380.242 139.091C380.323 139.032 380.422 139 380.525 139H387.542C387.613 139.001 387.682 139.017 387.745 139.046C387.808 139.075 387.863 139.118 387.905 139.17C387.948 139.222 387.977 139.282 387.991 139.346C388.005 139.41 388.003 139.477 387.985 139.54L383.623 154.683C383.595 154.774 383.537 154.854 383.456 154.911C383.375 154.968 383.277 154.999 383.175 155H376.462C376.392 155 376.323 154.986 376.259 154.958C376.196 154.93 376.141 154.888 376.098 154.837C376.055 154.786 376.025 154.726 376.01 154.663C375.995 154.599 375.997 154.533 376.014 154.47Z" fill="#2F2E41"/>
<path d="M396 150.955C396 150.955 395.094 153.901 386.25 154.728C386.25 154.728 382.204 155.822 382.6 153.623C382.6 153.623 378.581 153.548 380.14 151.543C379.63 151.585 379.116 151.54 378.625 151.408C378.48 151.364 378.352 151.282 378.258 151.172C378.165 151.062 378.109 150.93 378.098 150.791C378.088 150.653 378.123 150.514 378.199 150.394C378.275 150.273 378.389 150.176 378.526 150.114C378.953 149.948 379.418 149.873 379.882 149.895H383.961C384.031 149.895 384.1 149.881 384.165 149.856C384.229 149.83 384.287 149.793 384.334 149.746C384.382 149.7 384.419 149.645 384.443 149.585C384.466 149.525 384.476 149.461 384.472 149.398C384.46 149.275 384.396 149.162 384.294 149.082C384.191 149.002 384.058 148.961 383.923 148.97L377.955 149.164C377.831 149.168 377.708 149.149 377.592 149.109C377.476 149.069 377.371 149.008 377.282 148.93C377.193 148.852 377.122 148.758 377.073 148.655C377.025 148.551 377 148.44 377 148.328C376.998 148.111 377.09 147.902 377.255 147.745C377.419 147.589 377.645 147.496 377.884 147.487L387.03 146.949C386.648 146.136 386.07 145.409 385.339 144.824C385.339 144.824 384.301 144.003 385.081 143.177C385.081 143.177 385.471 142.232 388.073 144.71C388.073 144.71 390.708 147.785 392.838 145.655C392.827 145.655 395.863 145.297 396 150.955Z" fill="#F9B499"/>
<path d="M380 151.498C381.64 150.834 383.36 150.834 385 151.498C383.36 152.167 381.64 152.167 380 151.498Z" fill="#F7A48B"/>
<path d="M383 153.643C383.958 152.898 385.011 152.798 386 153.357C385.042 154.102 383.989 154.203 383 153.643Z" fill="#F7A48B"/>
<path d="M60 263V267.984C60.7536 268.425 61.3835 269.017 61.8405 269.714C62.2974 270.411 62.569 271.193 62.634 272C62.634 272 64.6136 270.613 69 270.238V263H60Z" fill="#AA6B4F"/>
<path d="M66.5941 135C64.4481 139.977 60.8066 144.296 56.0906 147.459C54.8257 148.302 53.6313 149.23 52.5171 150.236L51 151.614C51.7661 152.61 52.7705 153.433 53.9366 154.019C55.1028 154.606 56.4 154.941 57.7293 155C57.7293 155 71.2248 147.745 74 142.299L66.5941 135Z" fill="#AA6B4F"/>
<path d="M115.971 126.461L114.835 138.254L112.563 137.915L113.016 163.426L113.065 166.413C89.9749 172.428 74.9565 166.069 74.9565 166.069C75.1094 165.426 75.2951 164.168 75.5026 162.541C76.4146 155.004 77.6106 139.502 77.6106 139.502L75.2131 142.794L66 133.826C68.2415 130.354 70.7297 127.016 73.4492 123.832C76.8461 119.754 82.7333 118.034 85.4639 117.445C86.3869 117.238 86.9494 117.16 86.9494 117.16L95.9332 116H98.2214C117.516 117.12 115.971 126.461 115.971 126.461Z" fill="#2F2E41"/>
<path d="M98 116.027C95.9576 122.342 91.5501 121.997 91.5501 121.997C87.8493 121.591 85.7123 118.757 85 117.612C85.9405 117.381 86.5137 117.294 86.5137 117.294L95.6682 116L98 116.027Z" fill="#0091F2"/>
<path d="M66 133.641L67.6468 131L77 140.21L75.0788 143L66 133.641Z" fill="#0091F2"/>
<path opacity="0.2" d="M101 136.223L99.7946 136L96.9768 142.735L86 138.636L86.9214 139.624L98.6804 145L101 136.223Z" fill="black"/>
<path opacity="0.2" d="M112 138C111.549 156.395 105.423 157.767 104.578 157.867L104.3 157.91C98.4741 158.833 91.2152 152.328 91 152.137C94.5376 154.594 99.167 156.668 104.479 156.333C104.479 156.333 108.846 156.333 110.546 146.612L112 138Z" fill="black"/>
<path opacity="0.2" d="M113 166.197C89.9756 172.715 75 165.824 75 165.824C75.1525 165.126 75.3376 163.763 75.5446 162C80.8868 163.859 96.6085 168.289 112.956 162.959L113 166.197Z" fill="black"/>
<path d="M52 145L58.6254 165H77L70.8261 145.677L52 145Z" fill="#0091F2"/>
<path d="M71.8124 145L71 145.31L77.2035 165L78 164.542L71.8124 145Z" fill="#0091F2"/>
<path opacity="0.2" d="M71.8124 145L71 145.31L77.2035 165L78 164.542L71.8124 145Z" fill="black"/>
<path d="M75.2089 166L53.549 197.17C53.549 197.17 45.0421 208.009 47.4193 222.465C47.4193 222.465 49.6719 248.215 56.928 263.57H67.1298L67.1893 265.945C67.6767 266.307 68.1945 266.634 68.738 266.923C71.0827 268.208 75.8533 270.09 81.3278 268.198C81.8842 268.006 82.4268 267.782 82.9523 267.529C82.9523 267.529 95.6992 214.431 104.688 186.531C105.153 185.081 105.799 183.684 106.616 182.367C108.381 179.532 111.738 173.438 113 166.342C112.995 166.342 93.2245 172.446 75.2089 166ZM73.2487 217.5L70.2055 235.455L65.7002 214.9L77.4615 199.994L73.2487 217.5Z" fill="#0091F2"/>
<path opacity="0.2" d="M66 263C66 263 66.9615 242.183 69.2644 231L70 234.782L67.2788 263H66Z" fill="black"/>
<path opacity="0.2" d="M73 205C73 205 79.1914 177.126 84 168L77.1905 199.561L73 205Z" fill="black"/>
<path d="M71.7871 270.78C72.337 272.573 72.7423 274.4 73 276.246L71.7871 284H43.3604L40 280.615L48.0334 275.371L57.558 270.879C58.1477 270.604 58.6473 270.195 59.0072 269.693C59.3885 269.194 59.5968 268.605 59.6057 268C60.5395 268.386 61.3422 268.988 61.931 269.746C62.5198 270.504 62.8735 271.39 62.9556 272.312C65.5918 270.845 68.7343 270.3 71.7871 270.78Z" fill="#0091F2"/>
<path opacity="0.2" d="M71.7871 270.78C72.337 272.573 72.7423 274.4 73 276.246L71.7871 284H43.3604L40 280.615L48.0334 275.371L57.558 270.879C58.1477 270.604 58.6473 270.195 59.0072 269.693C59.3885 269.194 59.5968 268.605 59.6057 268C60.5395 268.386 61.3422 268.988 61.931 269.746C62.5198 270.504 62.8735 271.39 62.9556 272.312C65.5918 270.845 68.7343 270.3 71.7871 270.78Z" fill="black"/>
<path d="M48 275.178C48 275.178 48.461 278.025 53.7903 276.601C53.7903 276.601 62.7805 272.882 73 272.768L72.4512 270.79C72.4512 270.79 68.7739 269.694 63.1921 272.327C63.1097 271.401 62.7413 270.511 62.1254 269.75C61.5095 268.989 60.6686 268.384 59.6904 268C59.6919 268.323 59.6307 268.644 59.5093 268.949C59.174 269.794 58.474 270.494 57.5554 270.904L48 275.178Z" fill="#2F2E41"/>
<path d="M48.1427 275C48.1427 275 48.5176 276.564 43.5638 278.853C43.5638 278.853 41.5876 280.057 41.9571 281.022H52.5503C52.5503 281.022 57.1774 280.897 59.159 283.91H67.2618C67.2618 283.91 67.2029 276.413 74.2775 276.09C74.4043 276.088 74.5277 276.13 74.6258 276.208C74.7239 276.286 74.7902 276.396 74.813 276.517L75.9912 284.385C76.0055 284.461 76.0023 284.539 75.9819 284.613C75.9614 284.688 75.9243 284.757 75.873 284.816C75.8218 284.875 75.7578 284.922 75.6856 284.953C75.6134 284.985 75.5349 285.001 75.4557 285H39.1187C38.6918 285 38.2756 284.869 37.9295 284.626C37.5833 284.382 37.3248 284.039 37.1908 283.644C36.7248 282.247 36.8319 280.047 40.8164 278.373L48.1427 275Z" fill="#2F2E41"/>
<g opacity="0.2">
<path d="M48.1844 275.044C48.1844 275.044 48.6371 277.965 53.8693 276.504C53.8693 276.504 62.6956 272.688 72.7289 272.571L72.1901 270.541C72.1901 270.541 68.5798 269.416 63.0997 272.118C63.0188 271.168 62.6572 270.254 62.0525 269.473C61.4478 268.693 60.6222 268.072 59.6619 267.678C59.6633 268.009 59.6032 268.338 59.4841 268.652C59.1549 269.519 58.4676 270.237 57.5658 270.657L48.1844 275.044Z" fill="black"/>
<path d="M47.7911 275.248C47.7911 275.248 48.1683 276.709 43.1839 278.846C43.1839 278.846 41.1956 279.97 41.5674 280.871H52.2258C52.2258 280.871 56.8814 280.754 58.8752 283.568H67.0279C67.0279 283.568 66.9686 276.568 74.0868 276.266C74.2144 276.264 74.3386 276.303 74.4373 276.376C74.5359 276.449 74.6027 276.552 74.6257 276.665L75.8111 284.011C75.8255 284.082 75.8223 284.155 75.8017 284.224C75.7811 284.294 75.7437 284.359 75.6922 284.414C75.6406 284.469 75.5762 284.513 75.5036 284.542C75.431 284.572 75.352 284.587 75.2723 284.586H38.7115C38.2819 284.586 37.8632 284.464 37.5149 284.236C37.1666 284.009 36.9065 283.688 36.7717 283.32C36.3029 282.015 36.4106 279.961 40.4196 278.398L47.7911 275.248Z" fill="black"/>
</g>
<path d="M82 93.5543C82 93.5543 85.3294 89.0848 88.9297 88.1277C89.3683 88.0101 89.828 87.9732 90.2822 88.0192C90.7364 88.0652 91.1762 88.1931 91.5765 88.3957C93.0145 89.123 95.281 91.0276 96 95.8513L90.1489 98L82.6669 95.971L82 93.5543Z" fill="#0091F2"/>
<path opacity="0.2" d="M82 93.5543C82 93.5543 85.3294 89.0848 88.9297 88.1277C89.3683 88.0101 89.828 87.9732 90.2822 88.0192C90.7364 88.0652 91.1762 88.1931 91.5765 88.3957C93.0145 89.123 95.281 91.0276 96 95.8513L90.1489 98L82.6669 95.971L82 93.5543Z" fill="black"/>
<path opacity="0.2" d="M86 89C85.5192 89.7196 84.8173 90.715 84.3558 91.4299C83.7956 92.2285 83.3402 93.0918 83 94C83.1971 92.3879 84.8654 90.1822 86 89Z" fill="black"/>
<path opacity="0.2" d="M89 88.0228C87.4895 89.9101 86.264 91.948 85.3518 94.0897C85.2111 94.3947 85.1245 94.7087 85 95C85.5884 92.4143 86.9669 90.002 89 88V88.0228Z" fill="black"/>
<path opacity="0.2" d="M90 88C91.4518 90.5109 92.1296 93.2501 91.9796 96C91.9433 95.6579 91.9434 95.3204 91.889 94.9783C91.5709 92.6079 90.9378 90.2693 90 88Z" fill="black"/>
<path opacity="0.2" d="M92 88C93.6161 90.2139 94.6272 92.7795 94.9412 95.4629C94.9412 95.6419 94.984 95.821 95 96C94.4269 93.204 93.4155 90.5069 92 88Z" fill="black"/>
<path d="M86 111.854L86.4035 117.855C86.4035 117.855 88.2982 120.305 91.4035 119.968C91.4035 119.968 94.9123 119.857 96 117.08L95.5146 105H93.2982L86 111.854Z" fill="#AA6B4F"/>
<path d="M86 111.635L86.3084 116C87.6804 115.158 88.8079 114.098 89.6165 112.892C90.4252 111.685 90.8967 110.359 91 109L86 111.635Z" fill="#B97A59"/>
<path d="M95 104.809L93.6317 104.064L93.3985 99.0521L87.5316 97L81.3122 99.1656C81.3122 99.1656 78.4047 120.224 90.3355 110.378C92.1232 108.71 93.6896 106.839 95 104.809Z" fill="#AA6B4F"/>
<path d="M80.8738 96.0001C80.8738 96.0001 78.5955 95.9502 79.0633 98.0773C79.0633 98.0773 79.6176 99.818 82.2825 98.5177C82.2825 98.5177 83.1775 99.2281 86 98.5551C86 98.5426 82.3282 97.6868 80.8738 96.0001Z" fill="#2F2E41"/>
<path d="M94 99.4544L94.2348 104.38L95.6181 106.159L95.715 109C95.715 109 98.8388 108.976 98.7163 105.839C98.5938 102.703 98.7163 102.979 98.7163 102.979C98.7163 102.979 101.309 102.494 99.1247 99.4544C99.1247 99.4544 98.1038 98 97.0523 98H95.5772L94 99.4544Z" fill="#2F2E41"/>
<path d="M95.711 98.8056C97.0877 98.184 97.1264 97.1794 96.8886 96.4412C96.7769 96.109 96.543 95.832 96.2348 95.667C95.9265 95.502 95.5671 95.4613 95.23 95.5532C87.921 97.3459 83.4095 94.4432 81.8559 93.2056C81.7562 93.1255 81.6412 93.0668 81.5179 93.033C81.3947 92.9993 81.2659 92.9913 81.1395 93.0095C81.0131 93.0277 80.8917 93.0717 80.7829 93.1389C80.6741 93.206 80.5802 93.2948 80.5069 93.3998C80.2821 93.7275 80.1273 94.0983 80.0522 94.489C79.977 94.8796 79.9831 95.2816 80.0701 95.6698C80.16 96.1168 80.4147 96.5132 80.7833 96.7798C82.5857 98.0563 88.8111 101.941 95.711 98.8056Z" fill="#0091F2"/>
<path d="M94.5 106C95.3284 106 96 105.105 96 104C96 102.895 95.3284 102 94.5 102C93.6716 102 93 102.895 93 104C93 105.105 93.6716 106 94.5 106Z" fill="#AA6B4F"/>
<path d="M100 135.515L100.508 132L115 134.624L114.645 138L100 135.515Z" fill="#0091F2"/>
<path d="M112 138.185L110.517 147.001C108.782 156.964 104.328 156.964 104.328 156.964C98.9091 157.306 94.1868 155.181 90.5781 152.663C87.6796 150.617 85.1425 148.176 83.0555 145.424C78.2368 143.955 73.9856 138.518 73.9856 138.518L74.9815 140.375C75.049 140.499 75.0838 140.637 75.0832 140.776C75.0814 140.973 75.0102 141.164 74.8802 141.321C74.7502 141.478 74.5683 141.593 74.3615 141.648C74.1547 141.703 73.934 141.695 73.7323 141.627C73.5305 141.558 73.3583 141.431 73.2414 141.266L71.5762 138.935C69.9967 136.975 72.1652 136.804 72.1652 136.804C71.7957 135.109 73.5037 135.222 73.5037 135.222C72.6203 132.847 78.2261 133.978 78.2261 133.978L72.9094 129.903C70.8052 128.772 71.8386 128.042 71.8386 128.042C76.1968 127.194 87.0283 139.522 87.0283 139.522C89.8767 141.109 98.7806 145.067 98.7806 145.067L101.067 136.035L112 138.185Z" fill="#AA6B4F"/>
<path d="M52.8502 152.484C54.2594 153.72 56.0896 154.456 58.0215 154.563C66.6525 155.057 65.8472 156.118 65.8472 156.118C65.8472 157.032 59.1129 157.145 59.1129 157.145C68.295 158.173 66.928 159.535 66.928 159.535C66.626 160.029 63.0019 160.029 60.1037 159.95C60.0395 159.953 59.9783 159.976 59.9311 160.017C59.8838 160.057 59.8537 160.112 59.846 160.172C59.8384 160.231 59.8537 160.291 59.8893 160.341C59.9249 160.391 59.9783 160.428 60.0401 160.444C62.7476 160.977 65.8684 161.733 65.0206 162.266C63.5848 163.165 59.3672 162.266 59.3672 162.266C63.1662 164.078 62.0164 164.903 62.0164 164.903C56.2995 165.816 47.3611 159.985 47.3611 159.985C44.2986 157.708 47.3611 153.565 47.3611 153.565C47.3611 153.565 49.1784 150.415 51.2978 151.097L52.8502 152.484Z" fill="#AA6B4F"/>
<path d="M81 267.302V270.401C76.8245 269.371 72.2929 272 72.2929 272C72.1742 268.911 69 267.485 69 267.485V266C71.2555 267.312 75.7819 269.218 81 267.302Z" fill="#AA6B4F"/>
<path d="M80.7871 270.772C81.3374 272.565 81.7427 274.391 82 276.237L80.7871 284H52.3604L49 280.622L57.0072 275.375L66.5317 270.881C67.1202 270.606 67.6195 270.199 67.9809 269.698C68.3601 269.197 68.5682 268.607 68.5795 268C69.5132 268.386 70.3159 268.989 70.9047 269.747C71.4936 270.506 71.8473 271.392 71.9294 272.315C74.5708 270.836 77.7245 270.287 80.7871 270.772Z" fill="#0091F2"/>
<path d="M57.1175 275C57.1175 275 57.4871 276.565 52.5379 278.86C52.5379 278.86 50.5561 280.065 50.931 281.03H61.5203C61.5203 281.03 66.1534 280.9 68.1352 283.915H76.2392C76.2392 283.915 76.1803 276.419 83.2558 276.09C83.3827 276.088 83.5061 276.13 83.6042 276.208C83.7023 276.287 83.7686 276.396 83.7914 276.518L84.9912 284.384C85.0055 284.46 85.0023 284.538 84.9819 284.613C84.9614 284.688 84.9242 284.757 84.873 284.816C84.8218 284.874 84.7577 284.922 84.6856 284.953C84.6134 284.985 84.5349 285.001 84.4556 285H48.119C47.6914 285.003 47.274 284.873 46.9274 284.629C46.5807 284.385 46.3227 284.04 46.1908 283.644C45.7248 282.246 45.8319 280.044 49.817 278.37L57.1175 275Z" fill="#2F2E41"/>
<path d="M57 275.193C57 275.193 57.4611 278.036 62.7861 276.59C62.7861 276.59 71.7837 272.88 82 272.767L81.451 270.791C81.451 270.791 77.7729 269.696 72.1899 272.321C72.1075 271.396 71.7391 270.508 71.123 269.747C70.507 268.987 69.6659 268.384 68.6875 268C68.6881 268.323 68.625 268.643 68.5009 268.948C68.168 269.792 67.4698 270.494 66.552 270.905L57 275.193Z" fill="#2F2E41"/>
<path d="M327.974 286.261C326.642 293.889 322.634 299.137 317.353 302.716C305.659 310.646 287.714 310.389 278.837 309.666C276.432 309.485 274.052 309.097 271.731 308.507C265.231 306.8 257.648 308.415 257.648 308.415C236.08 311.945 225.421 308.415 225.421 308.415C206.702 303.08 200.961 290.863 199.477 281.425C198.802 277.277 198.844 273.06 199.601 268.922C203.55 236.176 223.049 230.187 223.049 230.187L255.005 222L282.975 235.357C302.165 242.883 313.751 253.786 313.751 253.786C334.691 264.373 327.974 286.261 327.974 286.261Z" fill="#BCBEC0"/>
<path opacity="0.2" d="M218.858 232.171C218.858 232.171 210.306 249.653 216.683 254.51C216.683 254.51 228.005 264.552 224.466 267.79C224.466 267.79 221.943 271.101 221.355 277.846C221.312 278.311 221.152 278.76 220.888 279.159C220.623 279.558 220.262 279.895 219.831 280.145C218.007 281.181 216.088 282.07 214.096 282.801C213.622 282.974 213.167 283.189 212.738 283.442C211.343 284.259 208.793 286.117 210.658 287.844C210.658 287.844 216.33 280.424 220.927 283.985C220.927 283.985 233.313 301.794 252.071 299.852C252.071 299.852 259.501 298.874 273.303 295.641C273.303 295.641 284.395 292.96 289.292 293.816C289.292 293.816 304.297 295.083 308.498 284.034C309.02 282.723 309.138 281.306 308.838 279.939C308.538 278.571 307.832 277.306 306.799 276.281C305.539 275.1 304.011 274.185 302.324 273.6L273.993 236.04L249.034 223L223.541 229.672C221.896 230.365 220.328 231.202 218.858 232.171Z" fill="black"/>
<path d="M246.073 206.895C246.073 206.895 239.766 205.707 241.217 198.511C241.217 198.511 242.296 192.351 248.894 192.657C248.894 192.657 251.932 187.084 258.363 189.698C258.363 189.698 260.149 190.023 262.291 192.312L265.528 194.284C265.528 194.284 271.598 197.549 267.686 203.103C267.686 203.103 265.701 205.569 264.017 206.614L264.827 200.163C264.827 200.163 265.906 196.898 260.899 194.935C260.899 194.935 259.82 200.163 250.901 202.121L247.33 208C246.82 207.729 246.389 207.35 246.073 206.895Z" fill="#2F2E41"/>
<path opacity="0.2" d="M261 195C261 195 267.322 196.341 266.987 201.374C266.465 203.491 265.398 205.432 263.896 207" fill="black"/>
<path d="M243.254 215L230.885 219.128C230.885 219.128 225.545 220.742 223.765 227.517L217 248.169C217 248.169 231.24 251.717 236.58 249.782L236.94 261.076L261.505 264C261.505 264 263.92 263.513 264.667 257.478L265.065 246.268L266.845 249.494C266.845 249.494 278.59 247.233 285 237.553L273.605 224.646C273.605 224.646 268.313 218.48 262.936 216.867L258.198 215.648L243.254 215Z" fill="#0091F2"/>
<path opacity="0.2" d="M265 246.722V241.884C265 241.884 267.261 240.166 265.746 230L278 245.41C278 245.41 274.383 248.034 266.899 250L265 246.722Z" fill="black"/>
<path d="M285.113 239L300 252.542L283.07 257L273 247.988C273 247.988 279.484 245.873 285.113 239Z" fill="#F9B499"/>
<path d="M232.152 263.412C232.152 263.412 222.346 281.907 229.79 288L266.309 286.063L285.455 273.413L289 265.862L267.691 264.308L266.309 263C266.309 263 246.216 265.761 232.152 263.412Z" fill="#2F2E41"/>
<path opacity="0.2" d="M232.152 263.412C232.152 263.412 222.346 281.907 229.79 288L266.309 286.063L285.455 273.413L289 265.862L267.691 264.308L266.309 263C266.309 263 246.216 265.761 232.152 263.412Z" fill="black"/>
<path d="M249 188.063C249 188.063 244.175 184.629 237.728 190.106C237.728 190.106 234.835 191.112 234.132 198.817C234.132 198.817 231.341 221.282 222 210.363C222 210.363 222.314 218.734 228.588 221C228.588 221 228.934 220.514 231.719 219.473L243.451 215.582L245.96 214.94L247.394 208.179C247.394 208.179 246.42 207.659 246.193 207.095C246.193 207.095 240.573 205.971 241.12 200.13C241.235 198.683 241.72 197.28 242.537 196.03L243.451 192.956L249 188.063Z" fill="#2F2E41"/>
<path opacity="0.2" d="M241.077 203C241.077 203 242.435 212.472 236 218L245.588 215.061L247 208.374C247 208.374 246.041 207.859 245.817 207.301C245.833 207.301 242.083 206.42 241.077 203Z" fill="black"/>
<path d="M255.059 279.227C255.059 279.227 271.538 290.307 285.866 296L295 279.227L264.225 265.101C264.225 265.101 249.77 257.395 244.124 260.926C244.124 260.926 227.506 271.987 227 282.349C227 282.349 226.846 287.252 234.606 290.782C235.411 291.058 236.247 291.251 237.099 291.359C238.946 291.596 240.83 291.399 242.571 290.788C244.312 290.177 245.853 289.172 247.048 287.868L255.059 279.227Z" fill="#2F2E41"/>
<path d="M295.502 280.645C297.121 279.994 298.808 279.519 300.534 279.227C300.534 279.227 306 277.57 306 283.204C306 288.838 300.994 289.83 290 290L294.403 281.381L295.502 280.645Z" fill="#F9B499"/>
<path d="M271.854 241L268 267H309.452L313 241H271.854Z" fill="#0091F2"/>
<path opacity="0.3" d="M271.854 241L268 267H309.452L313 241H271.854Z" fill="white"/>
<path d="M272 241L270.334 241.025L267.638 265.464H264L265.468 266.232L268.413 267L272 241Z" fill="#0091F2"/>
<path opacity="0.3" d="M272 241L268.413 267L265.468 266.232L264 265.464H267.638L267.918 262.909L268.673 256.097L270.334 241.02L272 241Z" fill="white"/>
<path d="M317 302.657C308.243 316.471 276.611 313.422 276.611 313.422C268.714 313.496 240.617 315.785 240.617 315.785C196.3 319.169 200.045 281.498 200.099 281C201.571 290.6 207.265 303.022 225.832 308.454C225.832 308.454 236.405 312.045 257.797 308.454C257.797 308.454 265.318 306.811 271.765 308.548C274.068 309.148 276.428 309.543 278.814 309.727C287.624 310.462 305.423 310.723 317 302.657Z" fill="#A7A9AC"/>
<path opacity="0.3" d="M268 267H284.023L298 241H271.83L268 267Z" fill="white"/>
<path opacity="0.2" d="M243.094 215L240 216.168C240 216.168 245.418 221.632 252.694 220.939C252.694 220.939 258.112 220.166 261 216.503L258.161 215.709L243.094 215Z" fill="black"/>
<path d="M249.246 193.025C244.339 192.767 242.659 196 242.659 196C242.659 196 240.677 193.699 243.587 190.906C243.587 190.906 248.96 185.137 253 189.856C251.786 190.304 250.738 191.047 249.976 192L249.246 193.025Z" fill="#0091F2"/>
<path d="M251.346 202.262L247.86 208.17L246.443 215.04L244 215.695C244.224 215.947 244.467 216.183 244.727 216.404C246.038 217.518 247.622 218.31 249.338 218.708C251.053 219.105 252.847 219.097 254.558 218.684C257.633 217.935 258.644 216.354 258.644 216.354L257.249 215.66V213.4C258.302 214.391 262.13 211.759 262.13 211.759C264.237 210.118 263.873 208.785 263.873 208.785L264.926 200.254C265.627 196.646 261.093 195 261.093 195C261.093 195 260.061 200.279 251.346 202.262Z" fill="#F9B499"/>
<path d="M257 212.861C257 212.861 252.145 210.929 251 210C251 210 251.902 213.48 257 215V212.861Z" fill="#F7A48B"/>
<path d="M249 208C250.657 208 252 206.657 252 205C252 203.343 250.657 202 249 202C247.343 202 246 203.343 246 205C246 206.657 247.343 208 249 208Z" fill="#F9B499"/>
<path d="M262.485 283C262.485 283 260.165 284.629 261.325 286.582C261.325 286.582 262.851 296.341 269 297L262.485 283Z" fill="#2F2E41"/>
<path opacity="0.3" d="M262.485 283C262.485 283 260.165 284.629 261.325 286.582C261.325 286.582 262.851 296.341 269 297L262.485 283Z" fill="black"/>
<path d="M263.471 285C263.471 285 257.902 286.555 244.995 286.555C244.995 286.555 238.354 286.25 242.197 292.973C242.197 292.973 242.899 295.719 250.934 294.819C250.934 294.819 259.053 293.624 266 290.555L263.471 285Z" fill="#F9B499"/>
<path d="M269 255.824L268.194 262.463L267.958 263.998L266.543 262.703C259.642 264.291 242.21 263.974 242.21 263.974C232.408 263.658 227.685 262.425 227.685 262.425C221.514 261.513 223.215 250 223.215 250C232.902 251.919 236.763 250.317 236.763 250.317L236.884 253.939L263.685 257.369C264.373 256.769 265.212 256.317 266.134 256.049C267.057 255.781 268.038 255.704 269 255.824Z" fill="#F9B499"/>
<path d="M264 239C266.085 238.525 268.23 238.075 270 237C268.574 238.43 266.157 239 264 239Z" fill="#F7A48B"/>
<path d="M265 241C266.561 240.419 268.261 240.079 270 240C268.364 240.414 266.694 240.748 265 241Z" fill="#F7A48B"/>
<path opacity="0.2" d="M280.894 294L276 291.762L294 282L280.894 294Z" fill="black"/>
<path d="M301.085 277.086C297.171 280.045 269.054 297 269.054 297L263 282.94L286.268 266.246C288.884 264.039 291.816 262.171 294.983 260.692C304.88 256.308 309.149 261.827 309.149 261.827C316.138 269.422 301.085 277.086 301.085 277.086Z" fill="#2F2E41"/>
<path opacity="0.2" d="M295 265.06L270.715 281.788C266.574 284.336 268.878 296.589 268.957 297L263 283.065L285.918 266.508C288.495 264.319 291.383 262.466 294.502 261L295 265.06Z" fill="black"/>
<path d="M186.235 45H209V70H186.235C182.725 70 179.359 68.683 176.877 66.3388C174.394 63.9946 173 60.8152 173 57.5C173 54.1848 174.394 51.0054 176.877 48.6612C179.359 46.317 182.725 45 186.235 45Z" fill="#0091F2"/>
<path d="M305.262 70H186.738C183.094 70 179.6 68.683 177.024 66.3388C174.447 63.9946 173 60.8152 173 57.5C173 54.1848 174.447 51.0054 177.024 48.6612C179.6 46.317 183.094 45 186.738 45H305.262C308.906 45 312.4 46.317 314.976 48.6612C317.553 51.0054 319 54.1848 319 57.5C319 60.8152 317.553 63.9946 314.976 66.3388C312.4 68.683 308.906 70 305.262 70ZM186.738 45.4902C183.237 45.4902 179.88 46.7555 177.405 49.0078C174.929 51.2601 173.539 54.3148 173.539 57.5C173.539 60.6852 174.929 63.7399 177.405 65.9922C179.88 68.2445 183.237 69.5098 186.738 69.5098H305.262C308.763 69.5098 312.12 68.2445 314.595 65.9922C317.071 63.7399 318.461 60.6852 318.461 57.5C318.461 54.3148 317.071 51.2601 314.595 49.0078C312.12 46.7555 308.763 45.4902 305.262 45.4902H186.738Z" fill="#2F2E41"/>
<path d="M189.505 62C188.417 62.001 187.353 61.7086 186.448 61.1597C185.543 60.6109 184.837 59.8304 184.42 58.9168C184.003 58.0033 183.893 56.9978 184.105 56.0276C184.317 55.0573 184.84 54.166 185.609 53.4662C186.378 52.7665 187.358 52.2898 188.425 52.0964C189.492 51.9031 190.598 52.0018 191.604 52.3801C192.609 52.7584 193.468 53.3993 194.073 54.2216C194.677 55.044 195 56.0109 195 57C195 58.3252 194.421 59.5963 193.391 60.5338C192.361 61.4713 190.963 61.9987 189.505 62ZM189.505 52.5271C188.533 52.532 187.584 52.7987 186.778 53.2936C185.972 53.7884 185.346 54.4893 184.978 55.3076C184.61 56.1259 184.517 57.025 184.711 57.8912C184.905 58.7575 185.377 59.5522 186.067 60.1749C186.757 60.7976 187.635 61.2204 188.589 61.3899C189.544 61.5594 190.532 61.4679 191.429 61.1272C192.326 60.7864 193.092 60.2116 193.631 59.4753C194.169 58.7389 194.455 57.8742 194.453 56.9901C194.452 56.4013 194.323 55.8184 194.074 55.275C193.825 54.7315 193.46 54.2383 193 53.8235C192.54 53.4087 191.995 53.0807 191.395 52.8582C190.795 52.6357 190.153 52.5232 189.505 52.5271Z" fill="white"/>
<path d="M193.855 59.3974L193.491 59.8139L197.7 62.8155L198.063 62.399L193.855 59.3974Z" fill="white"/>
</g>
<defs>
<clipPath id="clip0_4_69">
<rect width="407" height="316" fill="white"/>
</clipPath>
</defs>
</svg>
