<svg width="866" height="683" viewBox="0 0 866 683" fill="none" xmlns="http://www.w3.org/2000/svg">
<path d="M163.922 663.138C163.922 663.138 114.822 666.538 115.672 604.688C115.672 604.688 117.582 553.048 135.392 506.518C135.392 506.518 145.562 483.248 126.482 442.398C126.482 442.398 55.9024 322.658 81.6524 269.888C81.6524 269.888 204.652 34.3983 384.012 24.7483C384.012 24.7483 588.122 -2.49173 702.582 45.1783C702.582 45.1783 782.692 65.6083 729.282 179.668C729.282 179.668 651.732 293.668 700.672 362.668C700.672 362.668 817.032 513.398 662.522 663.168L163.922 663.138Z" fill="#0071F2"/>
<path opacity="0.7" d="M163.922 663.138C163.922 663.138 114.822 666.538 115.672 604.688C115.672 604.688 117.582 553.048 135.392 506.518C135.392 506.518 145.562 483.248 126.482 442.398C126.482 442.398 55.9024 322.658 81.6524 269.888C81.6524 269.888 204.652 34.3983 384.012 24.7483C384.012 24.7483 588.122 -2.49173 702.582 45.1783C702.582 45.1783 782.692 65.6083 729.282 179.668C729.282 179.668 651.732 293.668 700.672 362.668C700.672 362.668 817.032 513.398 662.522 663.168L163.922 663.138Z" fill="white"/>
<path d="M168.112 444.038L166.902 443.938C144.952 442.338 127.012 461.088 128.702 483.038C131.412 518.098 168.112 537.828 168.112 537.828C168.112 537.828 159.582 578.188 177.772 590.698C177.772 590.698 176.072 594.108 224.392 598.088L369.332 608.888C463.692 604.888 459.152 541.238 459.152 541.238C458.012 519.078 482.782 493.128 482.782 493.128C493.912 479.128 482.782 457.128 482.782 457.128C452.982 409.378 459.642 316.938 459.642 316.938C455.032 283.038 414.242 283.758 414.242 283.758C384.682 279.758 327.242 287.068 327.242 287.068V414.778L166.922 443.938" fill="#CCCCCC"/>
<path d="M347.172 439.498L297.712 490.868C297.712 490.868 282.082 470.468 236.892 452.998L294.022 427.208L301.892 424.728C301.892 424.728 325.282 424.438 334.092 432.118L347.172 439.498Z" fill="#2F2E41"/>
<path d="M327.222 290.448C327.222 290.448 327.222 296.768 336.152 297.538C339.495 297.806 342.849 297.17 345.862 295.698C349.862 293.778 355.212 290.058 356.262 283.748C359.273 276.565 361.292 269.006 362.262 261.278C362.262 261.278 352.572 289.148 327.222 290.448Z" fill="#F9B499"/>
<path d="M327.222 290.448C327.222 290.448 326.562 296.828 336.152 297.538C336.152 297.538 345.152 297.198 349.152 281.238C349.162 281.208 340.532 290.608 327.222 290.448Z" fill="#F7A48B"/>
<path d="M326.052 290.328C325.254 290.938 324.706 291.818 324.513 292.804C324.319 293.79 324.493 294.812 325.002 295.678C325.002 295.678 320.472 300.558 324.442 303.518C324.442 303.518 319.312 305.348 319.882 309.328C319.882 309.328 288.622 316.148 278.952 337.748C278.952 337.748 269.863 353.088 265.312 384.358L261.312 409.358L268.992 436.928L289.452 438.628C289.452 438.628 297.692 435.508 304.512 424.708C304.512 424.708 325.512 425.268 334.072 432.098L347.152 439.488L379.552 409.928C379.552 409.928 380.842 393.148 382.682 383.928C382.863 383.054 382.832 382.149 382.592 381.288L378.432 366.208L392.642 394.628L421.062 412.208C421.062 412.208 431.292 420.208 430.162 444.038C430.162 444.038 443.812 434.288 438.162 418.398C437.51 416.657 436.626 415.012 435.532 413.508C434.532 412.068 433.173 408.898 434.712 403.118C434.712 403.118 437.562 396.298 432.442 386.058C432.442 386.058 415.262 337.498 399.982 325.688L388.672 316.688L365.362 300.208C365.634 298.774 365.451 297.29 364.838 295.965C364.224 294.64 363.212 293.539 361.942 292.818C361.942 292.818 364.792 285.428 356.262 283.728C356.262 283.728 355.852 290.338 346.912 295.108C343.149 297.187 338.797 297.943 334.552 297.258C331.052 296.648 327.482 294.908 327.222 290.428L326.052 290.328Z" fill="#0071F2"/>
<g opacity="0.4">
<path d="M352.282 301.938C352.154 301.937 352.03 301.893 351.93 301.813C351.83 301.733 351.76 301.622 351.731 301.497C351.703 301.372 351.717 301.241 351.771 301.125C351.826 301.009 351.918 300.915 352.032 300.858C355.873 299.007 359.132 296.136 361.452 292.558C361.489 292.493 361.538 292.435 361.597 292.388C361.657 292.342 361.724 292.307 361.797 292.287C361.869 292.266 361.945 292.26 362.02 292.269C362.094 292.278 362.167 292.301 362.232 292.338C362.298 292.375 362.356 292.424 362.402 292.483C362.449 292.543 362.483 292.61 362.504 292.683C362.524 292.755 362.53 292.831 362.521 292.906C362.513 292.98 362.489 293.053 362.452 293.118C360.034 296.905 356.605 299.939 352.552 301.878C352.468 301.918 352.376 301.939 352.282 301.938Z" fill="white"/>
</g>
<g opacity="0.4">
<path d="M344.022 312.718C340.154 312.674 336.329 311.893 332.752 310.418C332.655 310.343 332.585 310.239 332.553 310.12C332.521 310.001 332.528 309.875 332.575 309.761C332.622 309.648 332.704 309.553 332.811 309.49C332.917 309.428 333.04 309.403 333.162 309.418C354.052 317.658 364.432 300.718 364.872 299.988C364.949 299.856 365.076 299.759 365.224 299.72C365.372 299.68 365.53 299.701 365.662 299.778C365.795 299.855 365.892 299.982 365.931 300.13C365.97 300.278 365.949 300.436 365.872 300.568C365.752 300.668 358.402 312.718 344.022 312.718Z" fill="white"/>
</g>
<path opacity="0.2" d="M402.462 327.918C394.352 336.448 386.812 345.838 381.932 356.618L381.422 357.828C380.652 359.408 380.202 361.108 379.572 362.758C382.232 349.218 391.992 336.578 402.462 327.918Z" fill="black"/>
<path opacity="0.2" d="M286.342 355.938C279.762 374.168 272.762 392.338 268.342 411.238C268.102 412.508 267.842 413.778 267.582 415.048C268.582 404.718 271.582 394.668 274.842 384.828C278.134 374.993 281.969 365.348 286.332 355.938H286.342Z" fill="black"/>
<path d="M311.352 354.208L310.302 363.868C310.302 363.868 313.392 366.128 316.482 365.418C316.832 365.341 317.143 365.141 317.359 364.855C317.575 364.569 317.683 364.216 317.662 363.858C317.562 362.058 316.632 358.288 311.352 354.208Z" fill="#0071F2"/>
<path opacity="0.2" d="M311.352 354.208L310.302 363.868C310.302 363.868 313.392 366.128 316.482 365.418C316.832 365.341 317.143 365.141 317.359 364.855C317.575 364.569 317.683 364.216 317.662 363.858C317.562 362.058 316.632 358.288 311.352 354.208Z" fill="black"/>
<path d="M289.682 348.828L295.812 327.918C296.668 324.226 297.302 320.486 297.712 316.718C298.317 309.711 299.847 302.814 302.262 296.208L311.042 279.618C311.146 279.417 311.307 279.252 311.505 279.143C311.704 279.035 311.93 278.988 312.155 279.01C312.38 279.031 312.594 279.12 312.768 279.264C312.942 279.408 313.069 279.601 313.132 279.818C313.962 282.818 314.482 288.438 310.302 295.818C310.302 295.818 307.942 301.328 309.082 303.028C309.082 303.028 314.202 299.028 317.082 303.028C317.734 304.238 318.668 305.273 319.805 306.046C320.941 306.819 322.247 307.307 323.612 307.468C324.069 307.532 324.502 307.707 324.875 307.977C325.248 308.247 325.549 308.605 325.752 309.018C326.172 309.968 326.172 311.358 324.472 313.128C324.472 313.128 330.062 314.678 327.262 317.668C327.262 317.668 326.742 319.518 321.632 319.518C321.632 319.518 319.352 320.648 321.062 321.788C321.72 322.331 322.146 323.104 322.252 323.95C322.358 324.796 322.136 325.65 321.632 326.338C321.077 326.773 320.398 327.022 319.693 327.051C318.988 327.08 318.292 326.886 317.702 326.498C316.597 328.556 315.308 330.511 313.852 332.338C313.367 332.901 313.066 333.599 312.992 334.338L310.342 363.848C302.58 360.173 295.573 355.078 289.682 348.828Z" fill="#F9B499"/>
<path opacity="0.2" d="M287.032 327.918C289.099 331.842 290.838 335.929 292.232 340.138C289.429 336.608 287.632 332.386 287.032 327.918Z" fill="black"/>
<path d="M306.812 311.028C307.692 308.388 310.052 305.218 313.242 305.978C314.245 306.258 315.154 306.804 315.872 307.558C316.312 308.108 316.822 308.668 317.322 309.188C318.81 310.79 320.662 312.008 322.722 312.738C319.722 312.738 316.722 310.318 315.072 308.338C311.862 305.108 308.783 308.118 306.812 311.028Z" fill="#F7A48B"/>
<path d="M308.842 316.258C310.182 313.758 313.122 312.918 315.212 315.108C315.462 315.368 315.682 315.648 315.912 315.928L315.862 315.868C317.522 317.398 319.322 319.018 321.592 319.558C318.932 319.888 316.042 317.868 314.412 315.898C312.782 313.928 310.582 314.768 308.842 316.258Z" fill="#F7A48B"/>
<path d="M309.652 324.098C309.644 323.701 309.723 323.306 309.885 322.943C310.046 322.58 310.286 322.257 310.587 321.997C310.888 321.737 311.243 321.547 311.626 321.44C312.009 321.333 312.41 321.312 312.802 321.378C314.246 321.83 315.485 322.775 316.302 324.048C316.864 324.814 317.321 325.652 317.662 326.538C316.942 325.918 316.292 325.258 315.662 324.638C313.662 322.728 311.562 320.888 309.662 324.098H309.652Z" fill="#F7A48B"/>
<path opacity="0.2" d="M304.532 424.718C307.072 420.238 307.822 414.938 307.832 409.868C308.072 404.648 305.352 399.228 308.402 394.318C310.552 389.688 312.752 383.638 314.592 378.418L316.472 372.988C314.779 380.504 312.388 387.846 309.332 394.918C308.148 397.105 307.746 399.631 308.192 402.078C309.422 409.638 308.992 418.218 304.532 424.718Z" fill="black"/>
<path opacity="0.2" d="M308.282 411.118C317.192 408.848 326.902 410.868 334.622 415.718C340.252 419.458 345.822 423.418 351.672 426.808C353.587 427.988 355.593 429.012 357.672 429.868C356.581 429.556 355.509 429.179 354.462 428.738C351.348 427.353 348.322 425.777 345.402 424.018C342.476 422.278 339.606 420.452 336.792 418.538C334.969 417.235 333.058 416.059 331.072 415.018C324.057 411.365 316.073 410.001 308.242 411.118H308.282Z" fill="black"/>
<path opacity="0.2" d="M236.922 452.998C236.922 452.998 277.282 465.508 297.742 490.868L336.612 450.498L278.782 457.788L236.922 452.998Z" fill="black"/>
<path d="M342.792 444.038L271.562 436.648L275.832 453.418L340.472 446.448L342.792 444.038Z" fill="#E6E6E6"/>
<path d="M175.502 445.178L177.542 450.498L278.752 457.788L336.582 450.498L340.472 446.448L276.972 452.848L175.502 445.178Z" fill="#0071F2"/>
<path opacity="0.4" d="M175.502 445.178L177.542 450.498L278.752 457.788L336.582 450.498L340.472 446.448L276.972 452.848L175.502 445.178Z" fill="white"/>
<path d="M464.832 540.108C464.832 523.618 478.102 498.548 478.102 498.548C462.922 493.928 430.312 529.208 430.312 529.208C420.712 571.958 397.772 594.018 388.042 601.708C385.302 603.884 381.948 605.147 378.452 605.318C344.802 606.918 243.192 599.528 243.192 599.528C208.722 596.928 192.262 594.408 184.502 592.748C181.852 592.188 179.348 591.08 177.151 589.496C174.954 587.912 173.111 585.886 171.742 583.548C161.742 566.288 168.112 537.868 168.112 537.868L160.982 533.208L162.982 572.468C166.392 603.728 186.852 600.888 186.852 600.888C176.052 622.488 182.852 661.708 182.852 661.708H193.122C188.012 635.558 196.532 602.028 196.532 602.028C209.042 603.728 243.142 606.028 243.142 606.028C233.762 632.468 231.212 662.878 231.212 662.878L240.872 663.448C241.139 644.158 244.994 625.087 252.242 607.208C349.102 608.638 380.752 609.778 388.242 610.558C389.037 610.647 389.84 610.501 390.552 610.138C391.875 609.468 393.134 608.678 394.312 607.778C405.94 608.118 417.523 606.188 428.412 602.098C440.922 619.098 449.972 661.388 449.972 661.388H459.672C454.562 628.588 436.672 597.988 436.672 597.988C456.922 584.748 464.832 540.108 464.832 540.108ZM406.832 597.848C427.292 574.848 440.942 524.758 440.942 524.758L459.692 512.818L452.922 549.208C446.642 602.628 406.852 597.848 406.852 597.848H406.832Z" fill="#2F2E41"/>
<path d="M430.312 465.908C440.953 458.038 455.032 452.998 468.262 456.218C472.63 457.314 476.701 459.363 480.182 462.218C476.501 459.758 472.389 458.011 468.062 457.068C454.952 454.378 441.502 459.218 430.312 465.898V465.908Z" fill="#B3B3B3"/>
<path d="M377.732 547.058C381.082 542.868 385.632 539.818 390.022 536.818C396.763 532.478 403.777 528.58 411.022 525.148C413.422 524.038 415.812 522.778 418.092 521.448C429.472 514.688 440.862 507.348 449.532 497.208C453.052 493.155 456.888 489.386 461.002 485.938C464.557 482.822 468.579 480.284 472.922 478.418C475.992 477.198 479.662 476.608 482.682 478.248C479.932 476.908 476.752 477.358 473.982 478.378C469.332 480.208 465.292 483.258 461.522 486.488C457.53 490.007 453.791 493.803 450.332 497.848C441.672 508.148 430.212 515.658 418.662 522.338C416.372 523.668 413.922 524.938 411.512 526.028C404.237 529.358 397.165 533.115 390.332 537.278C385.852 540.128 381.262 543.038 377.742 547.058H377.732Z" fill="#B3B3B3"/>
<path d="M367.062 540.108C364.372 549.958 378.962 553.498 386.062 554.788C397.672 556.738 409.482 556.788 421.232 556.878C408.502 557.878 395.512 557.988 382.952 555.278C377.582 553.918 371.742 552.178 368.152 547.648C367.308 546.607 366.758 545.358 366.56 544.032C366.361 542.706 366.521 541.352 367.022 540.108H367.062Z" fill="#B3B3B3"/>
<path d="M171.522 536.128C173.692 532.798 177.092 530.438 180.522 528.508C186.877 525.26 193.809 523.296 200.922 522.728C202.502 522.648 204.072 522.528 205.642 522.488C204.092 522.788 202.542 523.008 201.002 523.278C190.892 525.218 178.762 528.378 171.532 536.128H171.522Z" fill="#B3B3B3"/>
<path d="M190.282 533.848C244.332 535.208 298.922 537.268 352.922 540.108C298.922 538.798 244.252 536.688 190.262 533.848H190.282Z" fill="#B3B3B3"/>
<path d="M475.882 524.411L472.465 527.415L586.803 657.472L590.22 654.468L475.882 524.411Z" fill="#CCCCCC"/>
<path d="M482.672 655.218L596.702 525.328L601.732 528.168L487.732 655.218H482.672Z" fill="#CCCCCC"/>
<path d="M520.852 655.218L550.342 525.328H555.822L525.492 655.218H520.852Z" fill="#CCCCCC"/>
<path d="M495.152 453.708H536.052C536.23 453.708 536.4 453.779 536.526 453.904C536.652 454.03 536.722 454.201 536.722 454.378C536.722 459.828 536.342 496.758 527.652 502.018H504.182C504.182 502.018 500.072 500.318 498.942 491.788C498.942 491.788 488.332 488.918 488.802 465.908C488.802 465.908 489.272 457.688 494.962 458.248L494.482 454.458C494.471 454.364 494.48 454.268 494.508 454.177C494.537 454.086 494.584 454.003 494.648 453.932C494.711 453.861 494.789 453.804 494.876 453.766C494.963 453.727 495.057 453.708 495.152 453.708Z" fill="#0071F2"/>
<path d="M518.262 388.338C518.262 388.338 516.602 397.338 523.912 401.848C524.492 402.185 525.017 402.606 525.472 403.098C527.642 405.508 531.402 412.658 514.472 423.578C514.472 423.578 496.472 431.698 514.472 449.528C514.472 449.528 513.332 444.608 516.952 444.038C516.952 444.038 521.132 442.908 518.292 438.928C518.292 438.928 512.612 430.928 522.842 429.258L536.542 427.458C539.011 427.162 541.392 426.366 543.542 425.118C546.952 423.118 550.622 419.378 549.152 413.038C548.574 410.629 547.394 408.406 545.722 406.578C540.989 401.401 534.772 397.811 527.922 396.298C527.922 396.298 520.542 394.018 518.262 388.338Z" fill="#E6E6E6"/>
<path d="M599.552 488.948V495.738C599.55 497.405 598.886 499.002 597.707 500.18C596.527 501.357 594.929 502.018 593.262 502.018H548.422C546.757 502.018 545.159 501.357 543.982 500.179C542.804 499.001 542.142 497.404 542.142 495.738V488.948H599.552Z" fill="#0071F2"/>
<path d="M583.082 488.948H547.082C547.192 483.278 550.082 477.028 555.392 472.198C564.152 464.198 576.172 463.198 582.232 469.868C586.562 474.658 586.642 482.208 583.082 488.948Z" fill="#2F2E41"/>
<path d="M598.922 478.598C598.908 482.205 598.015 485.754 596.323 488.938H583.082C583.082 488.938 590.862 475.028 579.292 467.488C579.292 467.488 592.873 463.268 597.693 472.488C597.974 473.026 598.214 473.584 598.412 474.158C598.783 475.608 598.955 477.102 598.922 478.598Z" fill="#2F2E41"/>
<path d="M583.032 466.738C583.032 466.738 594.922 474.208 587.852 488.948H583.082C583.082 488.948 590.862 475.608 579.292 467.498C580.488 467.039 581.752 466.783 583.032 466.738Z" fill="black"/>
<path opacity="0.2" d="M570.842 474.168C572.256 474.168 573.402 473.022 573.402 471.608C573.402 470.194 572.256 469.048 570.842 469.048C569.428 469.048 568.282 470.194 568.282 471.608C568.282 473.022 569.428 474.168 570.842 474.168Z" fill="white"/>
<path opacity="0.2" d="M579.372 484.968C580.786 484.968 581.932 483.822 581.932 482.408C581.932 480.994 580.786 479.848 579.372 479.848C577.959 479.848 576.812 480.994 576.812 482.408C576.812 483.822 577.959 484.968 579.372 484.968Z" fill="white"/>
<path opacity="0.2" d="M558.052 487.528C558.051 488.034 557.902 488.527 557.622 488.948H553.372C553.093 488.527 552.944 488.034 552.943 487.528C552.921 487.179 552.971 486.83 553.089 486.501C553.208 486.172 553.392 485.87 553.632 485.616C553.871 485.361 554.16 485.158 554.481 485.019C554.802 484.88 555.148 484.808 555.497 484.808C555.847 484.808 556.193 484.88 556.514 485.019C556.835 485.158 557.124 485.361 557.363 485.616C557.603 485.87 557.787 486.172 557.906 486.501C558.024 486.83 558.074 487.179 558.052 487.528Z" fill="white"/>
<path opacity="0.2" d="M598.922 478.598C598.658 478.67 598.386 478.707 598.112 478.708C597.33 478.694 596.582 478.388 596.014 477.85C595.446 477.311 595.101 476.58 595.046 475.8C594.991 475.019 595.23 474.247 595.716 473.634C596.202 473.021 596.9 472.612 597.672 472.488C597.954 473.026 598.194 473.584 598.392 474.158C598.77 475.607 598.948 477.101 598.922 478.598Z" fill="white"/>
<g opacity="0.2">
<path d="M496.662 484.118C496.474 484.119 496.29 484.057 496.141 483.94C495.993 483.824 495.887 483.662 495.842 483.478C494.381 477.577 493.487 471.55 493.172 465.478C493.168 465.367 493.185 465.255 493.224 465.15C493.262 465.045 493.321 464.949 493.397 464.867C493.472 464.785 493.563 464.718 493.665 464.671C493.766 464.624 493.876 464.598 493.987 464.593C494.099 464.589 494.21 464.606 494.315 464.645C494.42 464.683 494.516 464.742 494.599 464.817C494.681 464.893 494.747 464.984 494.794 465.086C494.841 465.187 494.868 465.297 494.872 465.408C495.181 471.345 496.058 477.239 497.492 483.008C497.55 483.228 497.519 483.462 497.404 483.659C497.29 483.856 497.102 484 496.882 484.058C496.812 484.088 496.738 484.108 496.662 484.118Z" fill="black"/>
</g>
<path d="M294.302 554.318C294.302 554.318 304.532 552.218 310.502 529.678L298.002 530.678C296.149 538.449 294.912 546.353 294.302 554.318Z" fill="#2F2E41"/>
<path opacity="0.2" d="M294.302 554.318C294.302 554.318 304.532 552.218 310.502 529.678L298.002 530.678C296.149 538.449 294.912 546.353 294.302 554.318Z" fill="black"/>
<path d="M374.442 499.868C374.442 499.868 405.152 477.008 417.082 462.798" stroke="#FF0000" stroke-miterlimit="10"/>
<path opacity="0.7" d="M706.156 156.265C702.756 165.355 696.236 175.715 684.366 186.385C676.536 193.435 666.366 200.615 653.226 207.645C653.226 207.645 638.706 216.645 614.626 220.135C607.343 221.194 599.983 221.636 592.626 221.455C583.755 221.246 574.925 220.188 566.256 218.295C566.256 218.295 540.746 213.445 517.926 215.775C511.941 216.29 506.045 217.557 500.376 219.545C500.376 219.545 499.106 219.925 496.846 220.545C495.006 221.035 492.506 221.675 489.496 222.375L488.386 222.625C485.846 223.205 482.986 223.825 479.886 224.435L476.396 225.095C467.751 226.709 459.014 227.785 450.236 228.315C444.792 228.634 439.333 228.587 433.896 228.175H433.326L432.666 228.105C424.566 227.335 417.136 225.475 411.396 222.005C408.563 220.395 406.107 218.199 404.191 215.564C402.275 212.929 400.944 209.915 400.286 206.725C400.286 206.725 385.496 178.165 405.396 138.945C405.396 138.945 443.516 62.9445 561.446 59.7245C561.446 59.7245 620.256 53.1145 618.556 79.8245C618.556 79.8245 610.126 101.945 638.506 98.5645C638.506 98.5645 696.996 88.3545 707.226 124.735C707.236 124.655 713.066 137.855 706.156 156.265Z" fill="white"/>
<path d="M370.762 231.428C370.762 231.428 375.662 219.308 384.612 225.918C386.312 227.196 387.731 228.81 388.782 230.658C392.782 237.478 403.782 258.948 382.302 257.288C382.302 257.288 373.882 246.798 371.612 237.138L370.762 231.428Z" fill="#2F2E41"/>
<path opacity="0.2" d="M370.762 231.428C370.762 231.428 375.662 219.308 384.612 225.918C386.312 227.196 387.731 228.81 388.782 230.658C392.782 237.478 403.782 258.948 382.302 257.288C382.302 257.288 373.882 246.798 371.612 237.138L370.762 231.428Z" fill="black"/>
<path d="M357.306 271.35C367.462 255.378 367.016 236.912 356.311 230.106C345.605 223.299 328.695 230.728 318.539 246.7C308.384 262.671 308.829 281.137 319.535 287.944C330.24 294.751 347.151 287.321 357.306 271.35Z" fill="#F9B499"/>
<path d="M318.542 246.728C318.542 246.728 309.082 231.448 323.292 221.788C323.292 221.788 332.962 212.118 347.172 219.508C347.172 219.508 353.422 201.318 365.922 215.508C365.922 215.508 369.332 219.508 371.612 237.108C371.612 237.108 373.662 246.868 384.132 259.558C385.639 261.371 387 263.301 388.202 265.328C393.062 273.558 403.292 293.928 398.892 313.268C398.892 313.268 398.892 289.398 389.802 275.188C389.802 275.188 398.322 301.908 388.662 316.688C388.662 316.688 371.042 304.748 365.362 300.198C365.362 300.198 366.492 296.198 361.942 292.808C361.942 292.808 364.792 285.418 356.262 283.718C359.176 276.503 361.192 268.956 362.262 261.248C362.262 261.248 358.552 265.528 359.122 250.178C359.122 250.178 359.122 241.648 352.302 241.648C352.302 241.648 345.482 240.518 343.782 235.398C343.762 235.428 335.402 222.208 318.542 246.728Z" fill="#2F2E41"/>
<path d="M371.203 270.727C374.313 266.583 374.413 261.408 371.427 259.167C368.441 256.926 363.5 258.468 360.39 262.611C357.28 266.754 357.18 271.93 360.166 274.171C363.152 276.412 368.093 274.87 371.203 270.727Z" fill="#F9B499"/>
<path d="M370.762 231.428C372.332 239.629 375.577 247.418 380.292 254.308C380.942 255.308 381.662 256.308 382.292 257.308C375.572 250.578 370.762 241.088 370.752 231.448L370.762 231.428Z" fill="#0071F2"/>
<path d="M145.942 358.208L174.362 445.178L275.832 452.848L254.512 367.308L145.942 358.208Z" fill="#0071F2"/>
<path opacity="0.3" d="M145.942 358.208L174.362 445.178L275.832 452.848L254.512 367.308L145.942 358.208Z" fill="white"/>
<path d="M297.712 490.868L347.172 439.498L379.572 409.938C379.572 409.938 403.962 389.468 423.572 415.048C423.572 415.048 441.492 440.048 418.762 471.328C418.762 471.328 397.162 483.828 381.812 502.588L346.572 513.388L313.952 496.098C313.952 496.098 297.112 518.508 294.272 554.318C294.272 554.318 231.752 536.128 205.602 522.488L172.062 505.998C172.062 505.998 140.802 497.478 152.732 458.818C152.732 458.818 155.582 432.668 197.642 442.338C197.642 442.338 231.182 446.888 269.832 467.918C269.862 467.918 290.922 480.288 297.712 490.868Z" fill="#2F2E41"/>
<path opacity="0.2" d="M313.982 496.098C299.89 492.55 286.126 487.803 272.842 481.908C255.091 474.158 237.873 465.238 221.302 455.208C217.172 452.688 213.062 450.138 209.042 447.448C213.202 449.928 217.362 452.378 221.592 454.728C251.032 471.258 281.522 486.488 313.982 496.098Z" fill="black"/>
<path opacity="0.2" d="M236.922 457.118C245.542 460.198 253.182 467.328 258.422 474.708C257.552 473.908 256.742 473.078 255.912 472.258C250.062 466.608 243.922 461.208 236.922 457.118Z" fill="black"/>
<path d="M387.292 407.988C385.682 409.598 381.932 412.618 378.352 409.908C378.145 409.742 377.982 409.529 377.876 409.286C377.77 409.043 377.724 408.778 377.743 408.513C377.761 408.249 377.844 407.993 377.983 407.767C378.122 407.542 378.314 407.353 378.542 407.218C380.764 405.907 382.825 404.34 384.682 402.548L389.522 396.298C389.522 396.298 398.892 386.628 405.152 394.588C405.152 394.588 412.322 392.878 413.562 398.848C413.562 398.848 420.492 400.268 419.362 405.388C419.362 405.388 423.592 408.948 419.482 415.978C419.482 415.978 411.972 425.848 406.852 423.578C406.852 423.578 401.422 429.258 397.032 424.718C397.032 424.718 393.942 428.808 391.032 426.478C391.032 426.478 389.032 425.868 390.292 420.178C390.292 420.178 383.002 417.898 386.982 413.348L389.702 410.198C389.861 410.012 389.977 409.793 390.04 409.556C390.103 409.319 390.113 409.072 390.068 408.831C390.023 408.59 389.924 408.362 389.78 408.165C389.635 407.967 389.448 407.804 389.232 407.688C388.921 407.517 388.562 407.454 388.211 407.508C387.86 407.563 387.537 407.731 387.292 407.988Z" fill="#F9B499"/>
<path d="M366.592 529.308C366.592 529.308 374.452 507.138 381.842 502.588C381.842 502.588 364.492 492.868 350.432 505.398L313.982 496.098C313.982 496.098 304.032 508.388 298.322 531.098C298.322 531.068 350.772 524.208 366.592 529.308Z" fill="#F9B499"/>
<path d="M389.212 407.688C389.667 405.604 390.892 403.768 392.642 402.548C392.188 404.633 390.963 406.469 389.212 407.688Z" fill="#F7A48B"/>
<path d="M390.272 420.208C392.669 414.802 395.773 409.738 399.502 405.148C397.103 410.553 393.999 415.617 390.272 420.208Z" fill="#F7A48B"/>
<path d="M398.322 421.868C400.802 416.735 403.971 411.964 407.742 407.688C405.271 412.827 402.101 417.599 398.322 421.868Z" fill="#F7A48B"/>
<path d="M406.852 423.578C408.632 419.214 411.13 415.178 414.242 411.638C412.466 416.005 409.968 420.041 406.852 423.578Z" fill="#F7A48B"/>
<path d="M402.922 664.308H412.062C408.177 644.929 401.504 626.214 392.252 608.748C389.142 609.028 383.642 609.168 383.642 609.168C390.452 615.988 402.922 664.308 402.922 664.308Z" fill="#2F2E41"/>
<path d="M616.042 502.018H462.562V528.168H616.042V502.018Z" fill="#B3B3B3"/>
<path d="M631.209 147.66L625.636 149.179C625.636 149.179 627.071 153.338 622.235 154.736C621.31 155.02 620.309 155.042 619.371 154.796C618.432 154.551 617.603 154.051 616.999 153.367C616.483 152.799 616.124 152.13 615.952 151.415C615.781 150.7 615.801 149.959 616.011 149.252C616.481 147.612 618.108 145.763 622.071 145.37L618.217 134.208L612.709 135.708L614.996 142.249C614.996 142.249 607.899 146.132 610.492 153.697C612.992 160.933 620.864 160.627 624.003 159.773C626.356 159.099 634.326 156.371 631.209 147.66Z" fill="#52B4EB"/>
<path d="M614.893 123.974L610.08 125.427L611.458 129.851L616.272 128.398L614.893 123.974Z" fill="#52B4EB"/>
<path d="M499.109 128.553L507.153 128.722C507.153 128.722 507.538 122.136 514.561 122.168C515.913 122.149 517.222 122.541 518.306 123.29C519.39 124.039 520.195 125.108 520.608 126.346C520.971 127.382 521.075 128.496 520.911 129.596C520.748 130.697 520.321 131.754 519.667 132.681C518.173 134.842 515.066 136.814 509.717 135.706L508.686 153.383L516.635 153.553L517.202 143.18C517.202 143.18 528.497 140.594 529.22 128.619C529.886 117.159 519.518 114.275 514.989 114.177C511.575 114.154 499.772 114.711 499.109 128.553Z" fill="#117CB9"/>
<path d="M507.922 167.263L516.138 167.594L516.399 160.539L508.183 160.208L507.922 167.263Z" fill="#117CB9"/>
<path d="M573.947 183.005L578.194 182.807C578.167 182.363 578.235 181.919 578.392 181.499C578.549 181.08 578.794 180.693 579.112 180.362C579.429 180.03 579.813 179.761 580.243 179.568C580.672 179.376 581.138 179.264 581.614 179.239H581.72C582.433 179.182 583.148 179.333 583.766 179.671C584.384 180.01 584.873 180.519 585.167 181.129C585.418 181.641 585.537 182.2 585.515 182.762C585.493 183.324 585.33 183.873 585.04 184.366C584.374 185.516 582.845 186.593 579.943 186.256L580.431 195.208L584.679 195.01L584.41 189.764C586.111 189.209 587.57 188.149 588.562 186.745C589.555 185.341 590.026 183.672 589.903 181.994C589.585 176.187 583.957 175.104 581.55 175.216C579.681 175.295 573.487 176.002 573.947 183.005Z" fill="#A6DBF9"/>
<path d="M584.754 196.182L580.503 196.375L580.672 199.401L584.922 199.208L584.754 196.182Z" fill="#A6DBF9"/>
</svg>
