<svg width="672" height="647" viewBox="0 0 672 647" fill="none" xmlns="http://www.w3.org/2000/svg">
<path opacity="0.7" d="M87.9224 646.138C87.9224 646.138 38.8224 649.538 39.6724 587.688C39.6724 587.688 41.5824 536.048 59.3924 489.518C59.3924 489.518 69.5624 466.248 50.4824 425.398C50.4824 425.398 -20.0976 305.658 5.65243 252.888C5.65243 252.888 128.652 17.3983 308.012 7.74827C308.012 7.74827 512.122 -19.4917 626.582 28.1783C626.582 28.1783 706.692 48.6083 653.282 162.668C653.282 162.668 575.732 276.668 624.672 345.668C624.672 345.668 741.032 496.398 586.522 646.168L87.9224 646.138Z" fill="white"/>
</svg>
