<svg width="312" height="217" viewBox="0 0 312 217" fill="none" xmlns="http://www.w3.org/2000/svg">
<path d="M311.702 204.42H0V204.576H311.702V204.42Z" fill="#EBEBEB"/>
<path d="M280.473 214.465H259.827V214.62H280.473V214.465Z" fill="#EBEBEB"/>
<path d="M206.489 216.162H201.071V216.318H206.489V216.162Z" fill="#EBEBEB"/>
<path d="M259.205 208.672H247.241V208.827H259.205V208.672Z" fill="#EBEBEB"/>
<path d="M59.6323 209.72H32.7064V209.876H59.6323V209.72Z" fill="#EBEBEB"/>
<path d="M69.1319 209.72H65.187V209.876H69.1319V209.72Z" fill="#EBEBEB"/>
<path d="M140.362 212.356H81.9621V212.511H140.362V212.356Z" fill="#EBEBEB"/>
<path d="M147.756 176.556H27.3774C26.4339 176.555 25.5293 176.179 24.8625 175.51C24.1957 174.842 23.8211 173.935 23.8211 172.99V3.53586C23.8289 2.59602 24.2069 1.69727 24.8729 1.03511C25.5389 0.372955 26.439 0.000944507 27.3774 0H147.756C148.7 0 149.606 0.375651 150.273 1.04432C150.941 1.71298 151.316 2.61988 151.316 3.56551V173.005C151.312 173.948 150.935 174.851 150.268 175.517C149.601 176.182 148.698 176.556 147.756 176.556ZM27.3774 0.133429C26.4751 0.134411 25.6101 0.494096 24.9724 1.13346C24.3347 1.77282 23.9765 2.63957 23.9765 3.54328V173.005C23.9765 173.909 24.3347 174.776 24.9724 175.415C25.6101 176.054 26.4751 176.414 27.3774 176.415H147.756C148.659 176.414 149.524 176.055 150.162 175.415C150.801 174.776 151.16 173.909 151.161 173.005V3.53586C151.158 2.6331 150.798 1.76827 150.16 1.13061C149.522 0.492952 148.657 0.134404 147.756 0.133429H27.3774Z" fill="#EBEBEB"/>
<path d="M282.6 176.556H162.218C161.275 176.554 160.37 176.178 159.703 175.51C159.036 174.841 158.66 173.936 158.658 172.99V3.53586C158.669 2.59629 159.048 1.69866 159.714 1.03702C160.381 0.375374 161.28 0.00286016 162.218 2.13463e-09H282.6C283.54 -3.25197e-05 284.441 0.371546 285.107 1.03381C285.774 1.69608 286.153 2.59538 286.161 3.53586V173.005C286.157 173.948 285.78 174.851 285.113 175.517C284.445 176.182 283.542 176.556 282.6 176.556ZM162.218 0.133429C161.316 0.135387 160.451 0.495267 159.813 1.13431C159.175 1.77336 158.816 2.63953 158.814 3.54328V173.005C158.816 173.909 159.175 174.775 159.813 175.414C160.451 176.053 161.316 176.413 162.218 176.415H282.6C283.502 176.413 284.367 176.053 285.004 175.414C285.642 174.775 286 173.909 286.001 173.005V3.53586C286 2.63246 285.642 1.76628 285.004 1.12713C284.367 0.487976 283.502 0.127977 282.6 0.126016L162.218 0.133429Z" fill="#EBEBEB"/>
<path d="M53.2265 181.586C53.2265 181.337 54.0703 156.812 58.0374 152.932C61.9083 149.188 66.3565 152.791 66.5489 152.932L66.9486 152.454C66.8967 152.417 61.8787 148.314 57.597 152.454C53.4338 156.505 52.6085 180.511 52.6085 181.53L53.2265 181.586Z" fill="#E0E0E0"/>
<path d="M52.8934 186.4C52.8934 186.111 55.6097 156.961 44.9814 144.741L44.5078 145.152C54.9621 157.168 52.2791 186.048 52.2791 186.363L52.8934 186.4Z" fill="#E0E0E0"/>
<path d="M53.2857 183.32L53.9074 183.279C53.9074 182.946 51.8313 150.137 59.6249 142.954L59.2067 142.495C51.1689 149.87 53.1895 181.952 53.2857 183.32Z" fill="#E0E0E0"/>
<path d="M52.2791 183.302H52.9045C52.9045 182.397 52.6455 161.145 46.6134 157.702C46.0402 157.334 45.3876 157.108 44.7098 157.044C44.0321 156.979 43.3488 157.078 42.7166 157.331C39.0678 158.84 37.2619 165.341 37.1879 165.615L37.8096 165.785C37.8096 165.715 39.6118 159.303 42.972 157.909C43.5182 157.697 44.1069 157.617 44.6898 157.677C45.2727 157.737 45.8331 157.935 46.3248 158.254C52.0127 161.501 52.2791 183.083 52.2791 183.302Z" fill="#E0E0E0"/>
<path d="M54.6105 183.316L55.236 183.279C55.236 183.116 54.3256 166.482 58.8071 160.626C59.8914 159.214 61.0941 158.528 62.3412 158.591C65.2795 158.795 67.7405 163.098 67.7664 163.143L68.3104 162.835C68.2031 162.642 65.6607 158.198 62.3893 157.965C60.9313 157.861 59.5657 158.591 58.3445 160.218C53.6891 166.289 54.5735 182.623 54.6105 183.316Z" fill="#E0E0E0"/>
<path d="M53.615 185.574C53.7335 183.965 56.546 145.99 51.6019 139.303L51.1023 139.674C55.9131 146.182 53.0229 185.144 52.9711 185.536L53.615 185.574Z" fill="#E0E0E0"/>
<path d="M41.3585 161.145C41.3585 161.145 44.319 162.235 43.4419 164.822C42.5649 167.409 33.1911 171.652 33.1911 171.652C33.1911 171.652 29.2647 168.05 32.8692 162.194C36.4736 156.338 41.2771 159.296 41.3585 161.145Z" fill="#EBEBEB"/>
<path d="M54.2368 156.223C54.2368 156.223 51.1209 156.093 50.9062 158.817C50.6916 161.542 57.7635 169.077 57.7635 169.077C57.7635 169.077 62.752 167.268 61.6973 160.467C60.6426 153.666 55.0287 154.551 54.2368 156.223Z" fill="#EBEBEB"/>
<path d="M56.9124 143.199C56.9124 143.199 54.8104 142.973 54.9806 141.687C55.1509 140.401 63.1591 137.106 67.8848 142.428C67.8848 142.428 64.8614 147.635 60.4835 147.702C56.1056 147.769 56.9124 143.199 56.9124 143.199Z" fill="#EBEBEB"/>
<path d="M52.9897 140.071C52.9897 140.071 54.8992 140.99 55.4358 139.815C55.9724 138.64 50.9173 131.587 44.0822 133.614C44.0822 133.614 43.9009 139.641 47.5793 142.013C51.2578 144.385 52.9897 140.071 52.9897 140.071Z" fill="#EBEBEB"/>
<path d="M62.9666 160.1C62.9666 160.1 61.5123 158.929 63.0851 158.358C64.6578 157.787 72.3367 157.946 72.4366 165.578C72.4366 165.578 63.4847 167.06 62.3745 164.158C61.2643 161.256 62.9666 160.1 62.9666 160.1Z" fill="#EBEBEB"/>
<path d="M44.6928 142.98C44.6928 142.98 46.1472 141.805 44.5818 141.234C43.0164 140.664 35.3301 140.827 35.2302 148.451C35.2302 148.451 44.1895 149.933 45.2923 147.039C46.3951 144.144 44.6928 142.98 44.6928 142.98Z" fill="#EBEBEB"/>
<path d="M49.4259 149.129C49.4259 149.129 49.5555 147.706 48.4046 148.262C47.2537 148.818 43.2459 153.158 47.398 157.264C47.398 157.264 53.0119 153.113 51.9868 150.964C50.9617 148.814 49.4259 149.129 49.4259 149.129Z" fill="#EBEBEB"/>
<path d="M64.2582 151.171C64.2582 151.171 63.3848 150.037 64.6541 149.892C65.9235 149.748 71.6262 151.271 70.2976 156.972C70.2976 156.972 63.3589 156.449 63.0592 154.081C62.7594 151.712 64.2582 151.171 64.2582 151.171Z" fill="#EBEBEB"/>
<path d="M40.8034 204.443H64.6171L67.1854 178.331H38.2352L40.8034 204.443Z" fill="#F0F0F0"/>
<path d="M68.4658 175.455H36.9695V181.219H68.4658V175.455Z" fill="#E6E6E6"/>
<path d="M258.232 181.586C258.232 181.337 257.395 156.812 253.421 152.932C249.55 149.188 245.098 152.791 244.909 152.932L244.502 152.454C244.558 152.417 249.572 148.314 253.854 152.454C258.017 156.505 258.842 180.511 258.842 181.53L258.232 181.586Z" fill="#E0E0E0"/>
<path d="M258.572 186.4C258.572 186.111 255.856 156.961 266.484 144.741L266.95 145.152C256.496 157.168 259.179 186.048 259.179 186.363L258.572 186.4Z" fill="#E0E0E0"/>
<path d="M258.18 183.32L257.558 183.279C257.558 182.946 259.638 150.137 251.841 142.954L252.263 142.495C260.282 149.87 258.272 181.952 258.18 183.32Z" fill="#E0E0E0"/>
<path d="M259.198 183.302H258.572C258.572 182.397 258.827 161.145 264.863 157.702C265.438 157.334 266.092 157.108 266.771 157.044C267.45 156.979 268.134 157.078 268.767 157.331C272.413 158.84 274.222 165.341 274.296 165.615L273.675 165.785C273.675 165.715 271.872 159.303 268.494 157.909C267.947 157.696 267.357 157.616 266.774 157.676C266.19 157.736 265.629 157.934 265.137 158.254C259.445 161.501 259.198 183.083 259.198 183.302Z" fill="#E0E0E0"/>
<path d="M256.848 183.316L256.222 183.279C256.222 183.116 257.133 166.482 252.651 160.626C251.567 159.203 250.383 158.528 249.139 158.614C246.205 158.821 243.744 163.124 243.718 163.165L243.174 162.861C243.281 162.668 245.823 158.221 249.095 157.991C250.553 157.883 251.918 158.614 253.14 160.244C257.769 166.289 256.888 182.623 256.848 183.316Z" fill="#E0E0E0"/>
<path d="M257.832 185.574C257.706 183.965 254.901 145.99 259.845 139.303L260.345 139.674C255.534 146.182 258.424 185.144 258.472 185.536L257.832 185.574Z" fill="#E0E0E0"/>
<path d="M270.107 161.145C270.107 161.145 267.147 162.235 268.024 164.822C268.901 167.409 278.271 171.652 278.271 171.652C278.271 171.652 282.201 168.05 278.589 162.194C274.977 156.338 270.181 159.296 270.107 161.145Z" fill="#EBEBEB"/>
<path d="M257.221 156.223C257.221 156.223 260.374 156.093 260.552 158.817C260.73 161.542 253.695 169.077 253.695 169.077C253.695 169.077 248.706 167.268 249.768 160.467C250.83 153.666 256.433 154.551 257.221 156.223Z" fill="#EBEBEB"/>
<path d="M254.553 143.199C254.553 143.199 256.652 142.973 256.485 141.687C256.318 140.401 248.307 137.106 243.581 142.428C243.581 142.428 246.604 147.635 250.982 147.702C255.36 147.769 254.553 143.199 254.553 143.199Z" fill="#EBEBEB"/>
<path d="M258.469 140.071C258.469 140.071 256.566 140.99 256.03 139.815C255.493 138.64 260.548 131.587 267.38 133.614C267.38 133.614 267.561 139.641 263.883 142.013C260.204 144.385 258.469 140.071 258.469 140.071Z" fill="#EBEBEB"/>
<path d="M248.51 160.1C248.51 160.1 249.964 158.929 248.392 158.358C246.819 157.787 239.14 157.946 239.04 165.578C239.04 165.578 247.992 167.06 249.102 164.158C250.212 161.256 248.51 160.1 248.51 160.1Z" fill="#EBEBEB"/>
<path d="M266.769 142.98C266.769 142.98 265.318 141.805 266.884 141.234C268.449 140.664 276.135 140.827 276.235 148.451C276.235 148.451 267.276 149.933 266.173 147.039C265.071 144.144 266.769 142.98 266.769 142.98Z" fill="#EBEBEB"/>
<path d="M262.032 149.129C262.032 149.129 261.906 147.706 263.054 148.262C264.201 148.818 268.235 153.158 264.064 157.264C264.064 157.264 258.454 153.113 259.475 150.964C260.496 148.814 262.032 149.129 262.032 149.129Z" fill="#EBEBEB"/>
<path d="M247.207 151.171C247.207 151.171 248.081 150.037 246.808 149.892C245.535 149.748 239.839 151.271 241.198 156.972C241.198 156.972 248.136 156.449 248.436 154.081C248.736 151.712 247.207 151.171 247.207 151.171Z" fill="#EBEBEB"/>
<path d="M270.655 204.443H246.845L244.276 178.331H273.23L270.655 204.443Z" fill="#F0F0F0"/>
<path d="M274.503 175.448H243.007V181.211H274.503V175.448Z" fill="#E6E6E6"/>
<path d="M148.211 45.4362H84.7968V173.146H148.211V45.4362Z" fill="#FAFAFA"/>
<path d="M149.673 43.7017H83.3314V49.9691H149.673V43.7017Z" fill="#F0F0F0"/>
<path d="M149.673 50.6622H83.3314V53.7978H149.673V50.6622Z" fill="#F0F0F0"/>
<path d="M149.673 55.3137H83.3314V58.4492H149.673V55.3137Z" fill="#F0F0F0"/>
<path d="M149.673 59.9651H83.3314V63.1007H149.673V59.9651Z" fill="#F0F0F0"/>
<path d="M149.673 64.6166H83.3314V67.7522H149.673V64.6166Z" fill="#F0F0F0"/>
<path d="M149.673 69.2607H83.3314V72.3963H149.673V69.2607Z" fill="#F0F0F0"/>
<path d="M149.673 73.9122H83.3314V77.0478H149.673V73.9122Z" fill="#F0F0F0"/>
<path d="M149.673 78.5636H83.3314V81.6992H149.673V78.5636Z" fill="#F0F0F0"/>
<path d="M149.673 83.2151H83.3314V86.3507H149.673V83.2151Z" fill="#F0F0F0"/>
<path d="M149.673 87.8666H83.3314V91.0022H149.673V87.8666Z" fill="#F0F0F0"/>
<path d="M149.673 92.5181H83.3314V95.6536H149.673V92.5181Z" fill="#F0F0F0"/>
<path d="M149.673 97.1658H83.3314V100.301H149.673V97.1658Z" fill="#F0F0F0"/>
<path d="M149.673 101.817H83.3314V104.953H149.673V101.817Z" fill="#F0F0F0"/>
<path d="M149.673 106.469H83.3314V109.604H149.673V106.469Z" fill="#F0F0F0"/>
<path d="M149.673 111.12H83.3314V114.256H149.673V111.12Z" fill="#F0F0F0"/>
<path d="M149.673 115.772H83.3314V118.907H149.673V115.772Z" fill="#F0F0F0"/>
<path d="M149.673 120.416H83.3314V123.551H149.673V120.416Z" fill="#F0F0F0"/>
<path d="M149.673 125.067H83.3314V128.203H149.673V125.067Z" fill="#F0F0F0"/>
<path d="M149.673 129.719H83.3314V132.854H149.673V129.719Z" fill="#F0F0F0"/>
<path d="M149.673 134.37H83.3314V137.506H149.673V134.37Z" fill="#F0F0F0"/>
<path d="M149.673 139.022H83.3314V142.157H149.673V139.022Z" fill="#F0F0F0"/>
<path d="M149.673 143.673H83.3314V146.809H149.673V143.673Z" fill="#F0F0F0"/>
<path d="M149.673 148.321H83.3314V151.457H149.673V148.321Z" fill="#F0F0F0"/>
<path d="M149.673 152.972H83.3314V156.108H149.673V152.972Z" fill="#F0F0F0"/>
<path d="M149.673 157.624H83.3314V160.76H149.673V157.624Z" fill="#F0F0F0"/>
<path d="M149.673 162.275H83.3314V165.411H149.673V162.275Z" fill="#F0F0F0"/>
<path d="M149.673 166.927H83.3314V170.062H149.673V166.927Z" fill="#F0F0F0"/>
<path d="M149.673 171.571H83.3314V174.707H149.673V171.571Z" fill="#F0F0F0"/>
<path d="M226.913 45.4362H163.499V173.146H226.913V45.4362Z" fill="#FAFAFA"/>
<path d="M228.375 43.7017H162.033V49.9691H228.375V43.7017Z" fill="#F0F0F0"/>
<path d="M228.375 50.6622H162.033V51.2367H228.375V50.6622Z" fill="#F0F0F0"/>
<path d="M228.375 51.9742H162.033V52.5487H228.375V51.9742Z" fill="#F0F0F0"/>
<path d="M228.375 53.2789H162.033V53.8534H228.375V53.2789Z" fill="#F0F0F0"/>
<path d="M228.375 54.5872H162.033V55.1617H228.375V54.5872Z" fill="#F0F0F0"/>
<path d="M228.375 55.8956H162.033V56.4701H228.375V55.8956Z" fill="#F0F0F0"/>
<path d="M228.375 57.2039H162.033V57.7784H228.375V57.2039Z" fill="#F0F0F0"/>
<path d="M228.375 58.5085H162.033V59.083H228.375V58.5085Z" fill="#F0F0F0"/>
<path d="M228.375 59.8206H162.033V60.3951H228.375V59.8206Z" fill="#F0F0F0"/>
<path d="M228.375 61.1326H162.033V61.7071H228.375V61.1326Z" fill="#F0F0F0"/>
<path d="M228.375 62.4373H162.033V63.0118H228.375V62.4373Z" fill="#F0F0F0"/>
<path d="M228.375 63.7493H162.033V64.3238H228.375V63.7493Z" fill="#F0F0F0"/>
<path d="M228.375 65.054H162.033V65.6285H228.375V65.054Z" fill="#F0F0F0"/>
<path d="M228.375 66.366H162.033V66.9405H228.375V66.366Z" fill="#F0F0F0"/>
<path d="M228.375 67.6707H162.033V68.2451H228.375V67.6707Z" fill="#F0F0F0"/>
<path d="M228.375 68.979H162.033V69.5535H228.375V68.979Z" fill="#F0F0F0"/>
<path d="M228.375 70.291H162.033V70.8655H228.375V70.291Z" fill="#F0F0F0"/>
<path d="M228.375 71.5957H162.033V72.1702H228.375V71.5957Z" fill="#F0F0F0"/>
<path d="M228.375 72.9077H162.033V73.4822H228.375V72.9077Z" fill="#F0F0F0"/>
<path d="M164.841 28.7777C166.494 23.8143 163.816 18.4491 158.86 16.7941C153.904 15.1392 148.547 17.8212 146.895 22.7846C145.243 27.748 147.921 33.1133 152.876 34.7682C157.832 36.4232 163.189 33.7411 164.841 28.7777Z" fill="#F0F0F0"/>
<path d="M163.797 27.0701C164.508 22.6795 161.531 18.5425 157.147 17.8298C152.764 17.1171 148.633 20.0986 147.921 24.4892C147.21 28.8798 150.187 33.0168 154.571 33.7295C158.954 34.4422 163.085 31.4607 163.797 27.0701Z" fill="#FAFAFA"/>
<path d="M155.472 20.2478V25.8815L151.753 23.7689" fill="#F0F0F0"/>
<path d="M155.472 20.2478V25.8815L151.753 23.7689" stroke="#E0E0E0" stroke-width="2" stroke-linecap="round" stroke-linejoin="round"/>
</svg>
